# Blender 4.4.3
# www.blender.org
mtllib road.mtl
o 平面.001
v -4.208099 -0.000001 60.271072
v 3.741692 0.000001 60.712448
v -5.006824 -0.000000 80.245636
v 2.950634 0.000000 80.515297
v -5.006824 -0.000000 80.245636
v 2.950634 0.000000 80.515297
v -5.323727 -0.000000 100.300835
v 2.638206 0.000000 100.261826
v -5.323727 -0.000000 100.300835
v 2.638206 0.000000 100.261826
v -4.883984 -0.000000 120.431229
v 3.061970 0.000000 119.925537
v -4.883984 -0.000000 120.431229
v 3.061970 0.000000 119.925537
v -2.722446 -0.000000 140.607269
v 5.135088 0.000000 139.321579
v -2.722446 -0.000000 140.607269
v 5.135088 0.000000 139.321579
v 6.083242 -0.000000 160.627258
v 11.799801 0.000000 155.085144
v 6.083242 -0.000000 160.627258
v 11.799801 0.000000 155.085144
v 23.992157 -0.000000 172.789734
v 26.296497 0.000000 165.168457
v 23.992157 -0.000000 172.789734
v 26.296497 0.000000 165.168457
v 44.483124 -0.000000 175.219193
v 45.270710 0.000000 167.296219
v 44.483124 -0.000000 175.219193
v 45.270710 0.000000 167.296219
v 64.497307 -0.000000 176.783478
v 64.940475 0.000000 168.833801
v 64.497307 -0.000000 176.783478
v 64.940475 0.000000 168.833801
v 84.639236 -0.000000 177.304092
v 84.587067 0.000000 169.342239
v 84.639236 -0.000000 177.304092
v 84.587067 0.000000 169.342239
v 104.835892 -0.000001 176.612061
v 104.166229 0.000001 168.678238
v 104.835892 -0.000001 176.612061
v 104.166229 0.000001 168.678238
v 124.988945 -0.000000 173.941376
v 123.462715 0.000000 166.126984
v 124.988945 -0.000000 173.941376
v 123.462715 0.000000 166.126984
v 144.789490 -0.000000 164.710480
v 139.143051 0.000000 159.096939
v 144.789490 -0.000000 164.710480
v 139.143051 0.000000 159.096939
v 156.534836 -0.000000 146.492508
v 148.779922 0.000000 144.688248
v 156.534836 -0.000000 146.492508
v 148.779922 0.000000 144.688248
v 159.392395 -0.000000 126.257874
v 151.463531 0.000000 125.531906
v 159.392395 -0.000000 126.257874
v 151.463531 0.000000 125.531906
v 160.260178 -0.000000 106.041206
v 152.298309 0.000000 105.990540
v 160.260178 -0.000000 106.041206
v 152.298309 0.000000 105.990540
v 160.153320 -0.000000 86.008095
v 152.194031 0.000000 86.216667
v 160.153320 -0.000000 86.008095
v 152.194031 0.000000 86.216667
v 159.468155 -0.000000 66.045013
v 151.513733 0.000000 66.393051
v 159.468155 -0.000000 66.045013
v 151.513733 0.000000 66.393051
v 158.470337 -0.000000 46.213463
v 150.512314 0.000000 46.465820
v 158.470337 -0.000000 46.213463
v 150.512314 0.000000 46.465820
v 158.383270 -0.000000 26.495983
v 150.422119 0.000000 26.376764
v 158.383270 -0.000000 26.495983
v 150.422119 0.000000 26.376764
v 158.955399 0.000000 6.683593
v 150.998535 -0.000000 6.396678
v 158.955399 0.000000 6.683593
v 150.998535 -0.000000 6.396678
v 159.569885 -0.000000 -13.265715
v 151.609863 0.000000 -13.444953
v 159.569885 -0.000000 -13.265715
v 151.609863 0.000000 -13.444953
v 160.002884 -0.000000 -33.163822
v 152.042969 0.000000 -33.347416
v 160.002884 -0.000000 -33.163822
v 152.042969 0.000000 -33.347416
v 160.388931 -0.000000 -53.108231
v 152.427490 0.000000 -53.205582
v 160.388931 -0.000000 -53.108231
v 152.427490 0.000000 -53.205582
v 160.446091 -0.000001 -73.077324
v 152.484116 0.000001 -73.045944
v 160.446091 -0.000001 -73.077324
v 152.484116 0.000001 -73.045944
v 160.297913 -0.000000 -93.035614
v 152.337097 0.000000 -92.896385
v 160.297913 -0.000000 -93.035614
v 152.337097 0.000000 -92.896385
v 159.520844 -0.000001 -113.091393
v 151.572906 0.000001 -112.617554
v 159.520844 -0.000001 -113.091393
v 151.572906 0.000001 -112.617554
v 158.059967 -0.000001 -133.071884
v 150.131668 0.000001 -132.339828
v 158.059967 -0.000001 -133.071884
v 150.131668 0.000001 -132.339828
v 153.680786 -0.000001 -154.080765
v 146.789734 0.000000 -150.092361
v 153.680786 -0.000001 -154.080765
v 146.789734 0.000000 -150.092361
v 138.185577 -0.000000 -169.490906
v 134.258240 0.000000 -162.564865
v 138.185577 -0.000000 -169.490906
v 134.258240 0.000000 -162.564865
v 117.559029 -0.000000 -174.787552
v 116.453156 0.000000 -166.902695
v 117.559029 -0.000000 -174.787552
v 116.453156 0.000000 -166.902695
v 97.356163 -0.000001 -176.696030
v 97.039055 0.000001 -168.740326
v 97.356163 -0.000001 -176.696030
v 97.039055 0.000001 -168.740326
v 77.261703 0.000000 -176.935577
v 77.328674 -0.000000 -168.973816
v 77.261703 0.000000 -176.935577
v 77.328674 -0.000000 -168.973816
v 57.048889 -0.000000 -175.919815
v 57.793198 0.000000 -167.992645
v 57.048889 -0.000000 -175.919815
v 57.793198 0.000000 -167.992645
v 37.287590 -0.000000 -173.294830
v 38.097309 0.000000 -165.374100
v 37.287590 -0.000000 -173.294830
v 38.097309 0.000000 -165.374100
v 16.520872 -0.000001 -168.214920
v 20.586454 0.000001 -161.369110
v 16.520872 -0.000001 -168.214920
v 20.586454 0.000001 -161.369110
v 0.928917 -0.000001 -152.584595
v 8.123753 0.000000 -149.174545
v 0.928917 -0.000001 -152.584595
v 8.123753 0.000000 -149.174545
v -2.860943 -0.000001 -131.814087
v 5.037815 0.000001 -130.812317
v -2.860943 -0.000001 -131.814087
v 5.037815 0.000001 -130.812317
v -4.623112 -0.000000 -111.708206
v 3.326797 0.000000 -111.269066
v -4.623112 -0.000000 -111.708206
v 3.326797 0.000000 -111.269066
v -5.333256 -0.000000 -91.662102
v 2.627720 0.000000 -91.532700
v -5.333256 -0.000000 -91.662102
v 2.627720 0.000000 -91.532700
v -5.483330 -0.000000 -71.708458
v 2.478638 0.000000 -71.677589
v -5.483330 -0.000000 -71.708458
v 2.478638 0.000000 -71.677589
v -5.403038 -0.000001 -51.734707
v 2.558266 0.000001 -51.842243
v -5.403038 -0.000001 -51.734707
v 2.558266 0.000001 -51.842243
v -5.002007 -0.000001 -31.795559
v 2.957897 0.000001 -31.979362
v -5.002007 -0.000001 -31.795559
v 2.957897 0.000001 -31.979362
v -4.570835 -0.000000 -11.893456
v 3.388992 0.000000 -12.080702
v -4.570835 -0.000000 -11.893456
v 3.388992 0.000000 -12.080702
v -3.936401 -0.000000 8.051358
v 4.020443 0.000000 7.764067
v -3.936401 -0.000000 8.051358
v 4.020443 0.000000 7.764067
v -3.397232 -0.000000 27.854523
v 4.564175 0.000000 27.755072
v -3.397232 -0.000000 27.854523
v 4.564175 0.000000 27.755072
v -3.548531 -0.000000 47.561462
v 4.408150 0.000000 47.853210
v -3.548531 -0.000000 47.561462
v 4.408150 0.000000 47.853210
v -4.559776 -0.000001 67.426460
v 3.395828 0.000001 67.746155
vn -0.0000 -1.0000 -0.0000
vt 1.000000 0.000000
vt 0.000000 1.000000
vt 0.000000 0.000000
vt 1.000000 1.000000
s 0
usemtl マテリアル
f 2/1/1 3/2/1 1/3/1
f 2/1/1 4/4/1 3/2/1
f 6/1/1 7/2/1 5/3/1
f 6/1/1 8/4/1 7/2/1
f 10/1/1 11/2/1 9/3/1
f 10/1/1 12/4/1 11/2/1
f 14/1/1 15/2/1 13/3/1
f 14/1/1 16/4/1 15/2/1
f 18/1/1 19/2/1 17/3/1
f 18/1/1 20/4/1 19/2/1
f 22/1/1 23/2/1 21/3/1
f 22/1/1 24/4/1 23/2/1
f 26/1/1 27/2/1 25/3/1
f 26/1/1 28/4/1 27/2/1
f 30/1/1 31/2/1 29/3/1
f 30/1/1 32/4/1 31/2/1
f 34/1/1 35/2/1 33/3/1
f 34/1/1 36/4/1 35/2/1
f 38/1/1 39/2/1 37/3/1
f 38/1/1 40/4/1 39/2/1
f 42/1/1 43/2/1 41/3/1
f 42/1/1 44/4/1 43/2/1
f 46/1/1 47/2/1 45/3/1
f 46/1/1 48/4/1 47/2/1
f 50/1/1 51/2/1 49/3/1
f 50/1/1 52/4/1 51/2/1
f 54/1/1 55/2/1 53/3/1
f 54/1/1 56/4/1 55/2/1
f 58/1/1 59/2/1 57/3/1
f 58/1/1 60/4/1 59/2/1
f 62/1/1 63/2/1 61/3/1
f 62/1/1 64/4/1 63/2/1
f 66/1/1 67/2/1 65/3/1
f 66/1/1 68/4/1 67/2/1
f 70/1/1 71/2/1 69/3/1
f 70/1/1 72/4/1 71/2/1
f 74/1/1 75/2/1 73/3/1
f 74/1/1 76/4/1 75/2/1
f 78/1/1 79/2/1 77/3/1
f 78/1/1 80/4/1 79/2/1
f 82/1/1 83/2/1 81/3/1
f 82/1/1 84/4/1 83/2/1
f 86/1/1 87/2/1 85/3/1
f 86/1/1 88/4/1 87/2/1
f 90/1/1 91/2/1 89/3/1
f 90/1/1 92/4/1 91/2/1
f 94/1/1 95/2/1 93/3/1
f 94/1/1 96/4/1 95/2/1
f 98/1/1 99/2/1 97/3/1
f 98/1/1 100/4/1 99/2/1
f 102/1/1 103/2/1 101/3/1
f 102/1/1 104/4/1 103/2/1
f 106/1/1 107/2/1 105/3/1
f 106/1/1 108/4/1 107/2/1
f 110/1/1 111/2/1 109/3/1
f 110/1/1 112/4/1 111/2/1
f 114/1/1 115/2/1 113/3/1
f 114/1/1 116/4/1 115/2/1
f 118/1/1 119/2/1 117/3/1
f 118/1/1 120/4/1 119/2/1
f 122/1/1 123/2/1 121/3/1
f 122/1/1 124/4/1 123/2/1
f 126/1/1 127/2/1 125/3/1
f 126/1/1 128/4/1 127/2/1
f 130/1/1 131/2/1 129/3/1
f 130/1/1 132/4/1 131/2/1
f 134/1/1 135/2/1 133/3/1
f 134/1/1 136/4/1 135/2/1
f 138/1/1 139/2/1 137/3/1
f 138/1/1 140/4/1 139/2/1
f 142/1/1 143/2/1 141/3/1
f 142/1/1 144/4/1 143/2/1
f 146/1/1 147/2/1 145/3/1
f 146/1/1 148/4/1 147/2/1
f 150/1/1 151/2/1 149/3/1
f 150/1/1 152/4/1 151/2/1
f 154/1/1 155/2/1 153/3/1
f 154/1/1 156/4/1 155/2/1
f 158/1/1 159/2/1 157/3/1
f 158/1/1 160/4/1 159/2/1
f 162/1/1 163/2/1 161/3/1
f 162/1/1 164/4/1 163/2/1
f 166/1/1 167/2/1 165/3/1
f 166/1/1 168/4/1 167/2/1
f 170/1/1 171/2/1 169/3/1
f 170/1/1 172/4/1 171/2/1
f 174/1/1 175/2/1 173/3/1
f 174/1/1 176/4/1 175/2/1
f 178/1/1 179/2/1 177/3/1
f 178/1/1 180/4/1 179/2/1
f 182/1/1 183/2/1 181/3/1
f 182/1/1 184/4/1 183/2/1
f 186/1/1 187/2/1 185/3/1
f 186/1/1 188/4/1 187/2/1
