# Blender 4.5.1 LTS
# www.blender.org
mtllib wood2.mtl
o 円柱
v -0.000000 4.112766 1.521861
v -0.001476 6.678505 -0.168253
v -1.543258 4.112766 0.404387
v -0.953786 4.112766 -1.412922
v 0.953786 4.112766 -1.418777
v 1.534946 4.142492 0.392064
v -0.079380 5.372775 0.372676
v -0.537311 5.395184 0.023539
v -0.325041 5.396435 -0.590349
v 0.325053 5.396245 -0.592928
v 0.504190 5.377615 0.034736
v -1.251532 5.374801 0.043581
v 0.000000 7.374320 -0.174245
v -0.554142 5.374320 -1.272398
v 0.909313 5.374320 -1.019778
v 1.056215 5.363918 0.471638
v -0.409013 5.332200 1.020641
v -0.450860 6.356767 -0.098596
v -0.188846 6.374320 -0.549830
v 0.309885 6.374320 -0.464090
v 0.380380 6.374085 0.037698
v -0.113042 6.345060 0.265590
v 0.670707 6.294111 0.918273
v 0.000000 9.186854 -0.163100
v -0.959437 6.216063 0.828992
v -1.172047 6.310890 -0.623680
v 0.088179 6.310890 -1.417369
v 1.226551 6.310788 -0.466132
v 0.228284 7.748872 0.190656
v -0.276907 7.748872 0.157860
v -0.399422 7.748872 -0.333521
v 0.030050 7.748872 -0.604417
v 0.417994 7.748872 -0.280521
v 0.000000 -0.000000 1.000000
v 0.951057 -0.000000 0.309017
v 0.587785 -0.000000 -0.809017
v -0.587785 -0.000000 -0.809017
v -0.951057 -0.000000 0.309017
v -0.000000 -0.000000 0.127807
v 0.121552 -0.000000 0.039495
v 0.075123 -0.000000 -0.103398
v -0.075123 -0.000000 -0.103398
v -0.121552 -0.000000 0.039495
v -0.000000 2.085274 0.703391
v 0.668965 2.085274 0.217360
v 0.413443 2.085274 -0.569055
v -0.413443 2.085274 -0.569055
v -0.668965 2.085274 0.217360
v -0.000000 2.085274 0.089899
v 0.085499 2.085274 0.027780
v 0.052841 2.085274 -0.072730
v -0.052841 2.085274 -0.072730
v -0.085499 2.085274 0.027780
v -0.000000 4.172358 0.617625
v 0.587396 4.172358 0.190857
v 0.363031 4.172358 -0.499669
v -0.363031 4.172358 -0.499669
v -0.587396 4.172358 0.190857
v -0.000000 4.172358 0.078937
v 0.075074 4.172358 0.024393
v 0.046398 4.172358 -0.063861
v -0.046398 4.172358 -0.063861
v -0.075074 4.172358 0.024393
v -0.000000 5.686000 0.307180
v 0.292146 5.686000 0.094924
v 0.180556 5.686000 -0.248514
v -0.180556 5.686000 -0.248514
v -0.292146 5.686000 0.094924
v -0.000000 5.686000 0.039260
v 0.037338 5.686000 0.012132
v 0.023076 5.686000 -0.031762
v -0.023076 5.686000 -0.031762
v -0.037338 5.686000 0.012132
vn -0.5581 0.3458 0.7543
vn -0.8934 0.3269 -0.3082
vn -0.0037 0.3136 -0.9496
vn 0.9147 0.3163 -0.2517
vn 0.4741 0.3127 0.8231
vn 0.0001 -0.9999 0.0164
vn 0.4732 0.5854 0.6583
vn 0.7771 0.5737 -0.2588
vn -0.0026 0.5402 -0.8415
vn -0.7959 0.5476 -0.2582
vn -0.4801 0.5744 0.6630
vn -0.8220 0.3297 -0.4645
vn 0.1605 0.3203 -0.9336
vn 0.9355 0.3280 -0.1313
vn 0.3802 0.3278 0.8649
vn -0.6812 0.3497 0.6432
vn 0.0144 -0.9997 -0.0193
vn -0.6028 0.5826 0.5452
vn 0.2908 0.5158 0.8059
vn 0.8439 0.5305 -0.0794
vn 0.1427 0.5447 -0.8264
vn -0.7399 0.5465 -0.3923
vn -0.0631 0.2290 0.9714
vn -0.9433 0.2341 0.2352
vn -0.5178 0.2411 -0.8208
vn 0.6219 0.2416 -0.7449
vn 0.9022 0.2326 0.3633
vn -0.0000 -1.0000 -0.0001
vn 0.8379 0.4257 0.3416
vn 0.5827 0.4176 -0.6972
vn -0.4847 0.4157 -0.7696
vn -0.8745 0.4586 0.1579
vn -0.0698 0.4260 0.9020
vn -0.0000 1.0000 -0.0000
vn -0.9510 0.0042 -0.3090
vn -0.9505 -0.0332 0.3088
vn 0.5875 -0.0332 -0.8086
vn -0.0000 0.0042 -1.0000
vn -0.5875 -0.0332 -0.8086
vn -0.9510 0.0147 -0.3090
vn 0.5877 0.0147 0.8089
vn -0.0000 -0.1143 0.9934
vn -0.5877 0.0147 0.8089
vn 0.9510 0.0147 -0.3090
vn 0.9448 -0.1143 0.3070
vn -0.5839 -0.1143 -0.8037
vn -0.0000 0.0147 -0.9999
vn 0.5839 -0.1143 -0.8037
vn -0.9448 -0.1143 0.3070
vn -0.5799 -0.1637 -0.7981
vn 0.9382 -0.1637 0.3048
vn 0.9508 0.0212 -0.3089
vn -0.5877 0.0212 0.8088
vn -0.0000 -0.1637 0.9865
vn 0.5878 0.0042 0.8090
vn -0.0000 -0.0332 0.9994
vn -0.5878 0.0042 0.8090
vn 0.9510 0.0042 -0.3090
vn 0.9505 -0.0332 0.3088
vn -0.0000 -1.0000 -0.0000
vn -0.0000 0.0212 -0.9998
vn 0.5799 -0.1637 -0.7981
vn -0.9382 -0.1637 0.3048
vn -0.9508 0.0212 -0.3089
vn 0.5877 0.0212 0.8088
vn 0.0096 -0.9999 -0.0133
vn 0.0097 -0.9999 0.0031
vn 0.3829 0.6356 0.6704
vn 0.8145 0.5383 -0.2165
vn -0.0032 0.5406 -0.8413
vn -0.7849 0.5576 -0.2703
vn -0.4789 0.5731 0.6649
vn -0.0316 -0.9994 -0.0164
vn 0.0012 -1.0000 -0.0071
vn -0.5946 0.5673 0.5698
vn 0.3239 0.5480 0.7712
vn 0.8224 0.5571 -0.1153
vn 0.1420 0.5451 -0.8262
vn -0.7281 0.5558 -0.4012
vn 0.0007 -0.9999 -0.0118
vn 0.0517 -0.9960 -0.0726
vn 0.8384 0.4278 0.3376
vn 0.5823 0.4178 -0.6974
vn -0.4853 0.4154 -0.7694
vn -0.8773 0.4272 0.2187
vn -0.0584 0.4323 0.8998
vt 1.000000 0.750000
vt 0.800000 1.000000
vt 0.800000 0.750000
vt 0.600000 1.000000
vt 0.600000 0.750000
vt 0.400000 1.000000
vt 0.400000 0.750000
vt 0.200000 1.000000
vt 0.200000 0.750000
vt 0.000000 1.000000
vt 0.000000 0.750000
vt 0.891068 0.055836
vt 0.608932 0.055836
vt 0.521746 0.324164
vt 0.000000 0.500000
vt 0.200000 0.500000
vt 0.400000 0.500000
vt 0.600000 0.500000
vt 0.800000 0.500000
vt 1.000000 0.500000
vt 0.978254 0.324164
vt 0.000000 0.000000
vt 0.750000 0.490000
s 0
usemtl マテリアル.004
f 7/1/1 2/2/1 8/3/1
f 8/3/2 2/4/2 9/5/2
f 9/5/3 2/6/3 10/7/3
f 10/7/4 2/8/4 11/9/4
f 11/9/5 2/10/5 7/11/5
f 4/12/6 5/13/6 6/14/6
f 11/9/7 1/15/7 6/16/7
f 5/17/8 11/9/8 6/16/8
f 4/18/9 10/7/9 5/17/9
f 8/3/10 4/18/10 3/19/10
f 7/1/11 3/19/11 1/20/11
f 18/1/12 13/2/12 19/3/12
f 19/3/13 13/4/13 20/5/13
f 20/5/14 13/6/14 21/7/14
f 21/7/15 13/8/15 22/9/15
f 22/9/16 13/10/16 18/11/16
f 14/21/17 16/13/17 17/14/17
f 22/9/18 12/15/18 17/16/18
f 16/17/19 22/9/19 17/16/19
f 15/18/20 21/7/20 16/17/20
f 14/19/21 20/5/21 15/18/21
f 18/1/22 14/19/22 12/20/22
f 29/1/23 24/2/23 30/3/23
f 30/3/24 24/4/24 31/5/24
f 31/5/25 24/6/25 32/7/25
f 32/7/26 24/8/26 33/9/26
f 33/9/27 24/10/27 29/11/27
f 26/12/28 27/13/28 28/14/28
f 28/16/29 29/11/29 23/15/29
f 27/17/30 33/9/30 28/16/30
f 31/5/31 27/17/31 26/18/31
f 30/3/32 26/18/32 25/19/32
f 23/20/33 30/3/33 25/19/33
f 34/22/34 43/22/34 38/22/34
f 42/22/34 36/22/34 37/22/34
f 40/22/34 34/22/34 35/22/34
f 43/22/34 37/22/34 38/22/34
f 36/22/34 40/22/34 35/22/34
f 53/22/35 62/22/35 52/22/35
f 45/22/36 56/22/36 46/22/36
f 48/22/37 54/22/37 44/22/37
f 52/22/38 61/22/38 51/22/38
f 45/22/39 54/22/39 55/22/39
f 43/22/40 52/22/40 42/22/40
f 40/22/41 49/22/41 39/22/41
f 36/22/42 47/22/42 37/22/42
f 39/22/43 53/22/43 43/22/43
f 41/22/44 50/22/44 40/22/44
f 37/22/45 48/22/45 38/22/45
f 34/22/46 45/22/46 35/22/46
f 42/22/47 51/22/47 41/22/47
f 34/22/48 48/22/48 44/22/48
f 36/22/49 45/22/49 46/22/49
f 54/22/50 65/22/50 55/22/50
f 57/22/51 68/22/51 58/22/51
f 61/22/52 70/22/52 60/22/52
f 59/22/53 73/22/53 63/22/53
f 56/22/54 67/22/54 57/22/54
f 50/22/55 59/22/55 49/22/55
f 46/22/56 57/22/56 47/22/56
f 49/22/57 63/22/57 53/22/57
f 51/22/58 60/22/58 50/22/58
f 47/22/59 58/22/59 48/22/59
f 68/22/60 69/22/60 64/22/60
f 66/22/60 72/22/60 67/22/60
f 64/22/60 70/22/60 65/22/60
f 68/22/60 72/22/60 73/22/60
f 66/22/60 70/22/60 71/22/60
f 62/22/61 71/22/61 61/22/61
f 58/22/62 64/22/62 54/22/62
f 55/22/63 66/22/63 56/22/63
f 63/22/64 72/22/64 62/22/64
f 60/22/65 69/22/65 59/22/65
f 6/14/66 1/23/66 3/21/66
f 3/21/67 4/12/67 6/14/67
f 11/9/68 7/11/68 1/15/68
f 5/17/69 10/7/69 11/9/69
f 4/18/70 9/5/70 10/7/70
f 8/3/71 9/5/71 4/18/71
f 7/1/72 8/3/72 3/19/72
f 17/14/73 12/23/73 14/21/73
f 14/21/74 15/12/74 16/13/74
f 22/9/75 18/11/75 12/15/75
f 16/17/76 21/7/76 22/9/76
f 15/18/77 20/5/77 21/7/77
f 14/19/78 19/3/78 20/5/78
f 18/1/79 19/3/79 14/19/79
f 28/14/80 23/23/80 26/12/80
f 23/23/81 25/21/81 26/12/81
f 28/16/82 33/9/82 29/11/82
f 27/17/83 32/7/83 33/9/83
f 31/5/84 32/7/84 27/17/84
f 30/3/85 31/5/85 26/18/85
f 23/20/86 29/1/86 30/3/86
f 34/22/34 39/22/34 43/22/34
f 42/22/34 41/22/34 36/22/34
f 40/22/34 39/22/34 34/22/34
f 43/22/34 42/22/34 37/22/34
f 36/22/34 41/22/34 40/22/34
f 53/22/35 63/22/35 62/22/35
f 45/22/36 55/22/36 56/22/36
f 48/22/37 58/22/37 54/22/37
f 52/22/38 62/22/38 61/22/38
f 45/22/39 44/22/39 54/22/39
f 43/22/40 53/22/40 52/22/40
f 40/22/41 50/22/41 49/22/41
f 36/22/42 46/22/42 47/22/42
f 39/22/43 49/22/43 53/22/43
f 41/22/44 51/22/44 50/22/44
f 37/22/45 47/22/45 48/22/45
f 34/22/46 44/22/46 45/22/46
f 42/22/47 52/22/47 51/22/47
f 34/22/48 38/22/48 48/22/48
f 36/22/49 35/22/49 45/22/49
f 54/22/50 64/22/50 65/22/50
f 57/22/51 67/22/51 68/22/51
f 61/22/52 71/22/52 70/22/52
f 59/22/53 69/22/53 73/22/53
f 56/22/54 66/22/54 67/22/54
f 50/22/55 60/22/55 59/22/55
f 46/22/56 56/22/56 57/22/56
f 49/22/57 59/22/57 63/22/57
f 51/22/58 61/22/58 60/22/58
f 47/22/59 57/22/59 58/22/59
f 68/22/60 73/22/60 69/22/60
f 66/22/60 71/22/60 72/22/60
f 64/22/60 69/22/60 70/22/60
f 68/22/60 67/22/60 72/22/60
f 66/22/60 65/22/60 70/22/60
f 62/22/61 72/22/61 71/22/61
f 58/22/62 68/22/62 64/22/62
f 55/22/63 65/22/63 66/22/63
f 63/22/64 73/22/64 72/22/64
f 60/22/65 70/22/65 69/22/65
