# Blender v3.5.0 OBJ File: 'workkkkkkk.blend'
# www.blender.org
mtllib worldDesign.mtl
o 木.004_円柱.002
v 0.000000 10.000000 3.000000
v -0.585271 -10.000000 2.942356
v 0.000000 -10.000000 3.000000
v -0.585271 10.000000 2.942356
v -1.148050 -10.000000 2.771638
v -1.148050 10.000000 2.771638
v -1.666711 -10.000000 2.494409
v -1.666711 10.000000 2.494409
v -2.121320 -10.000000 2.121320
v -2.121320 10.000000 2.121320
v -2.494409 -10.000000 1.666711
v -2.494409 10.000000 1.666711
v -2.771638 -10.000000 1.148050
v -2.771638 10.000000 1.148050
v -2.942356 -10.000000 0.585271
v -2.942356 10.000000 0.585271
v -3.000000 -10.000000 0.000000
v -3.000000 10.000000 -0.000000
v -2.942356 -10.000000 -0.585271
v -2.942356 10.000000 -0.585271
v -2.771638 -10.000000 -1.148050
v -2.771638 10.000000 -1.148050
v -2.494409 -10.000000 -1.666711
v -2.494409 10.000000 -1.666711
v -2.121320 -10.000000 -2.121320
v -2.121320 10.000000 -2.121320
v -1.666711 -10.000000 -2.494409
v -1.666711 10.000000 -2.494409
v -1.148050 -10.000000 -2.771638
v -1.148050 10.000000 -2.771638
v -0.585271 -10.000000 -2.942356
v -0.585271 10.000000 -2.942356
v 0.000000 -10.000000 -3.000000
v 0.000000 10.000000 -3.000000
v 0.585271 -10.000000 -2.942356
v 0.585271 10.000000 -2.942356
v 1.148050 -10.000000 -2.771638
v 1.148050 10.000000 -2.771638
v 1.666711 -10.000000 -2.494409
v 1.666711 10.000000 -2.494409
v 2.121320 -10.000000 -2.121320
v 2.121320 10.000000 -2.121320
v 2.494409 -10.000000 -1.666711
v 2.494409 10.000000 -1.666711
v 2.771638 -10.000000 -1.148050
v 2.771638 10.000000 -1.148050
v 2.942356 -10.000000 -0.585271
v 2.942356 10.000000 -0.585271
v 3.000000 -10.000000 0.000000
v 3.000000 10.000000 -0.000000
v 2.942356 -10.000000 0.585271
v 2.942356 10.000000 0.585271
v 2.771638 -10.000000 1.148050
v 2.771638 10.000000 1.148050
v 2.494409 -10.000000 1.666711
v 2.494409 10.000000 1.666711
v 2.121320 -10.000000 2.121320
v 2.121320 10.000000 2.121320
v 1.666711 -10.000000 2.494409
v 1.666711 10.000000 2.494409
v 1.148050 -10.000000 2.771638
v 1.148050 10.000000 2.771638
v 0.585271 -10.000000 2.942356
v 0.585271 10.000000 2.942356
v 0.000000 6.650001 5.000000
v 0.000000 16.650000 0.000000
v -0.975452 6.650001 4.903925
v -1.913417 6.650001 4.619399
v -2.777851 6.650001 4.157349
v -3.535534 6.650001 3.535533
v -4.157348 6.650000 2.777852
v -4.619398 6.650000 1.913417
v -4.903926 6.650000 0.975452
v -5.000000 6.650000 -0.000000
v -4.903926 6.650000 -0.975452
v -4.619398 6.650000 -1.913417
v -4.157348 6.650000 -2.777852
v -3.535534 6.650001 -3.535533
v -2.777851 6.650001 -4.157349
v -1.913417 6.650001 -4.619399
v -0.975452 6.650001 -4.903925
v 0.000000 6.650001 -5.000000
v 0.975452 6.650001 -4.903925
v 1.913417 6.650001 -4.619399
v 2.777851 6.650001 -4.157349
v 3.535534 6.650001 -3.535533
v 4.157348 6.650000 -2.777852
v 4.619398 6.650000 -1.913417
v 4.903926 6.650000 -0.975452
v 5.000000 6.650000 -0.000000
v 4.903926 6.650000 0.975452
v 4.619398 6.650000 1.913417
v 4.157348 6.650000 2.777852
v 3.535534 6.650001 3.535533
v 2.777851 6.650001 4.157349
v 1.913417 6.650001 4.619399
v 0.975452 6.650001 4.903925
v 0.000000 10.000000 5.000000
v 0.000000 20.000000 -0.000000
v -0.975452 10.000000 4.903926
v -1.913417 10.000000 4.619398
v -2.777851 10.000000 4.157348
v -3.535534 10.000000 3.535534
v -4.157348 10.000000 2.777851
v -4.619398 10.000000 1.913417
v -4.903926 10.000000 0.975452
v -5.000000 10.000000 -0.000000
v -4.903926 10.000000 -0.975452
v -4.619398 10.000000 -1.913417
v -4.157348 10.000000 -2.777851
v -3.535534 10.000000 -3.535534
v -2.777851 10.000000 -4.157348
v -1.913417 10.000000 -4.619398
v -0.975452 10.000000 -4.903926
v 0.000000 10.000000 -5.000000
v 0.975452 10.000000 -4.903926
v 1.913417 10.000000 -4.619398
v 2.777851 10.000000 -4.157348
v 3.535534 10.000000 -3.535534
v 4.157348 10.000000 -2.777851
v 4.619398 10.000000 -1.913417
v 4.903926 10.000000 -0.975452
v 5.000000 10.000000 -0.000000
v 4.903926 10.000000 0.975452
v 4.619398 10.000000 1.913417
v 4.157348 10.000000 2.777851
v 3.535534 10.000000 3.535534
v 2.777851 10.000000 4.157348
v 1.913417 10.000000 4.619398
v 0.975452 10.000000 4.903926
v 0.000000 12.430000 5.000000
v 0.000000 22.430000 -0.000000
v -0.975452 12.430000 4.903926
v -1.913417 12.430000 4.619398
v -2.777851 12.430000 4.157348
v -3.535534 12.430000 3.535534
v -4.157348 12.430000 2.777851
v -4.619398 12.430000 1.913417
v -4.903926 12.430000 0.975452
v -5.000000 12.430000 -0.000000
v -4.903926 12.430000 -0.975452
v -4.619398 12.430000 -1.913417
v -4.157348 12.430000 -2.777851
v -3.535534 12.430000 -3.535534
v -2.777851 12.430000 -4.157348
v -1.913417 12.430000 -4.619398
v -0.975452 12.430000 -4.903926
v 0.000000 12.430000 -5.000000
v 0.975452 12.430000 -4.903926
v 1.913417 12.430000 -4.619398
v 2.777851 12.430000 -4.157348
v 3.535534 12.430000 -3.535534
v 4.157348 12.430000 -2.777851
v 4.619398 12.430000 -1.913417
v 4.903926 12.430000 -0.975452
v 5.000000 12.430000 -0.000000
v 4.903926 12.430000 0.975452
v 4.619398 12.430000 1.913417
v 4.157348 12.430000 2.777851
v 3.535534 12.430000 3.535534
v 2.777851 12.430000 4.157348
v 1.913417 12.430000 4.619398
v 0.975452 12.430000 4.903926
vt 1.000000 1.000000
vt 0.968750 0.500000
vt 1.000000 0.500000
vt 0.968750 1.000000
vt 0.937500 0.500000
vt 0.937500 1.000000
vt 0.906250 0.500000
vt 0.906250 1.000000
vt 0.875000 0.500000
vt 0.875000 1.000000
vt 0.843750 0.500000
vt 0.843750 1.000000
vt 0.812500 0.500000
vt 0.812500 1.000000
vt 0.781250 0.500000
vt 0.781250 1.000000
vt 0.750000 0.500000
vt 0.750000 1.000000
vt 0.718750 0.500000
vt 0.718750 1.000000
vt 0.687500 0.500000
vt 0.687500 1.000000
vt 0.656250 0.500000
vt 0.656250 1.000000
vt 0.625000 0.500000
vt 0.625000 1.000000
vt 0.593750 0.500000
vt 0.593750 1.000000
vt 0.562500 0.500000
vt 0.562500 1.000000
vt 0.531250 0.500000
vt 0.531250 1.000000
vt 0.500000 0.500000
vt 0.500000 1.000000
vt 0.468750 0.500000
vt 0.468750 1.000000
vt 0.437500 0.500000
vt 0.437500 1.000000
vt 0.406250 0.500000
vt 0.406250 1.000000
vt 0.375000 0.500000
vt 0.375000 1.000000
vt 0.343750 0.500000
vt 0.343750 1.000000
vt 0.312500 0.500000
vt 0.312500 1.000000
vt 0.281250 0.500000
vt 0.281250 1.000000
vt 0.250000 0.500000
vt 0.250000 1.000000
vt 0.218750 0.500000
vt 0.218750 1.000000
vt 0.187500 0.500000
vt 0.187500 1.000000
vt 0.156250 0.500000
vt 0.156250 1.000000
vt 0.125000 0.500000
vt 0.125000 1.000000
vt 0.093750 0.500000
vt 0.093750 1.000000
vt 0.062500 0.500000
vt 0.158156 0.028269
vt 0.471731 0.158156
vt 0.341844 0.471731
vt 0.062500 1.000000
vt 0.031250 0.500000
vt 0.031250 1.000000
vt 0.000000 0.500000
vt 0.796822 0.014612
vt 0.514612 0.203178
vt 0.703178 0.485388
vt 0.250000 0.490000
vt 0.250000 0.250000
vt 0.296822 0.485388
vt 0.341844 0.471731
vt 0.383337 0.449553
vt 0.419706 0.419706
vt 0.449553 0.383337
vt 0.471731 0.341844
vt 0.485388 0.296822
vt 0.490000 0.250000
vt 0.485388 0.203178
vt 0.471731 0.158156
vt 0.449553 0.116663
vt 0.419706 0.080294
vt 0.383337 0.050447
vt 0.341844 0.028269
vt 0.296822 0.014612
vt 0.250000 0.010000
vt 0.203178 0.014612
vt 0.158156 0.028269
vt 0.116663 0.050447
vt 0.080294 0.080294
vt 0.050447 0.116663
vt 0.028269 0.158156
vt 0.014612 0.203178
vt 0.010000 0.250000
vt 0.014612 0.296822
vt 0.028269 0.341844
vt 0.050447 0.383337
vt 0.080294 0.419706
vt 0.116663 0.449553
vt 0.158156 0.471731
vt 0.796822 0.014612
vt 0.514612 0.203178
vt 0.703178 0.485388
vt 0.203178 0.485388
vt 0.250000 0.490000
vt 0.250000 0.250000
vt 0.296822 0.485388
vt 0.341844 0.471731
vt 0.383337 0.449553
vt 0.419706 0.419706
vt 0.449553 0.383337
vt 0.471731 0.341844
vt 0.485388 0.296822
vt 0.490000 0.250000
vt 0.485388 0.203178
vt 0.471731 0.158156
vt 0.449553 0.116663
vt 0.419706 0.080294
vt 0.383337 0.050447
vt 0.341844 0.028269
vt 0.296822 0.014612
vt 0.250000 0.010000
vt 0.203178 0.014612
vt 0.158156 0.028269
vt 0.116663 0.050447
vt 0.080294 0.080294
vt 0.050447 0.116663
vt 0.028269 0.158156
vt 0.014612 0.203178
vt 0.010000 0.250000
vt 0.014612 0.296822
vt 0.028269 0.341844
vt 0.050447 0.383337
vt 0.080294 0.419706
vt 0.116663 0.449553
vt 0.158156 0.471731
vt 0.796822 0.014612
vt 0.514612 0.203178
vt 0.703178 0.485388
vt 0.203178 0.485388
vt 0.250000 0.490000
vt 0.250000 0.250000
vt 0.296822 0.485388
vt 0.341844 0.471731
vt 0.383337 0.449553
vt 0.419706 0.419706
vt 0.449553 0.383337
vt 0.471731 0.341844
vt 0.485388 0.296822
vt 0.490000 0.250000
vt 0.485388 0.203178
vt 0.471731 0.158156
vt 0.449553 0.116663
vt 0.419706 0.080294
vt 0.383337 0.050447
vt 0.341844 0.028269
vt 0.296822 0.014612
vt 0.250000 0.010000
vt 0.203178 0.014612
vt 0.158156 0.028269
vt 0.116663 0.050447
vt 0.080294 0.080294
vt 0.050447 0.116663
vt 0.028269 0.158156
vt 0.014612 0.203178
vt 0.010000 0.250000
vt 0.014612 0.296822
vt 0.028269 0.341844
vt 0.050447 0.383337
vt 0.080294 0.419706
vt 0.116663 0.449553
vt 0.158156 0.471731
vt 0.796822 0.014612
vt 0.514612 0.203178
vt 0.703178 0.485388
vt 0.203178 0.485388
vt 0.296822 0.485388
vt 0.250000 0.490000
vt 0.203178 0.485388
vt 0.158156 0.471731
vt 0.116663 0.449553
vt 0.080294 0.419706
vt 0.050447 0.383337
vt 0.028269 0.341844
vt 0.014612 0.296822
vt 0.010000 0.250000
vt 0.014612 0.203178
vt 0.028269 0.158156
vt 0.050447 0.116663
vt 0.080294 0.080294
vt 0.116663 0.050447
vt 0.203178 0.014612
vt 0.341844 0.028269
vt 0.250000 0.010000
vt 0.296822 0.014612
vt 0.383337 0.050447
vt 0.419706 0.080294
vt 0.449553 0.116663
vt 0.485388 0.203178
vt 0.471731 0.341844
vt 0.490000 0.250000
vt 0.485388 0.296822
vt 0.449553 0.383337
vt 0.419706 0.419706
vt 0.383337 0.449553
vt 0.000000 1.000000
vt 0.750000 0.490000
vt 0.796822 0.485388
vt 0.841844 0.471731
vt 0.883337 0.449553
vt 0.919706 0.419706
vt 0.949553 0.383337
vt 0.971731 0.341844
vt 0.985388 0.296822
vt 0.990000 0.250000
vt 0.985388 0.203178
vt 0.971731 0.158156
vt 0.949553 0.116663
vt 0.919706 0.080294
vt 0.883337 0.050447
vt 0.841844 0.028269
vt 0.750000 0.010000
vt 0.703178 0.014612
vt 0.658156 0.028269
vt 0.616663 0.050447
vt 0.580294 0.080294
vt 0.550447 0.116663
vt 0.528269 0.158156
vt 0.510000 0.250000
vt 0.514612 0.296822
vt 0.528269 0.341844
vt 0.550447 0.383337
vt 0.580294 0.419706
vt 0.616663 0.449553
vt 0.658156 0.471731
vt 0.750000 0.490000
vt 0.796822 0.485388
vt 0.841844 0.471731
vt 0.883337 0.449553
vt 0.919706 0.419706
vt 0.949553 0.383337
vt 0.971731 0.341844
vt 0.985388 0.296822
vt 0.990000 0.250000
vt 0.985388 0.203178
vt 0.971731 0.158156
vt 0.949553 0.116663
vt 0.919706 0.080294
vt 0.883337 0.050447
vt 0.841844 0.028269
vt 0.750000 0.010000
vt 0.703178 0.014612
vt 0.658156 0.028269
vt 0.616663 0.050447
vt 0.580294 0.080294
vt 0.550447 0.116663
vt 0.528269 0.158156
vt 0.510000 0.250000
vt 0.514612 0.296822
vt 0.528269 0.341844
vt 0.550447 0.383337
vt 0.580294 0.419706
vt 0.616663 0.449553
vt 0.658156 0.471731
vt 0.750000 0.490000
vt 0.796822 0.485388
vt 0.841844 0.471731
vt 0.883337 0.449553
vt 0.919706 0.419706
vt 0.949553 0.383337
vt 0.971731 0.341844
vt 0.985388 0.296822
vt 0.990000 0.250000
vt 0.985388 0.203178
vt 0.971731 0.158156
vt 0.949553 0.116663
vt 0.919706 0.080294
vt 0.883337 0.050447
vt 0.841844 0.028269
vt 0.750000 0.010000
vt 0.703178 0.014612
vt 0.658156 0.028269
vt 0.616663 0.050447
vt 0.580294 0.080294
vt 0.550447 0.116663
vt 0.528269 0.158156
vt 0.510000 0.250000
vt 0.514612 0.296822
vt 0.528269 0.341844
vt 0.550447 0.383337
vt 0.580294 0.419706
vt 0.616663 0.449553
vt 0.658156 0.471731
vt 0.750000 0.490000
vt 0.796822 0.485388
vt 0.841844 0.471731
vt 0.883337 0.449553
vt 0.919706 0.419706
vt 0.949553 0.383337
vt 0.971731 0.341844
vt 0.985388 0.296822
vt 0.990000 0.250000
vt 0.985388 0.203178
vt 0.971731 0.158156
vt 0.949553 0.116663
vt 0.919706 0.080294
vt 0.883337 0.050447
vt 0.841844 0.028269
vt 0.750000 0.010000
vt 0.703178 0.014612
vt 0.658156 0.028269
vt 0.616663 0.050447
vt 0.580294 0.080294
vt 0.550447 0.116663
vt 0.528269 0.158156
vt 0.510000 0.250000
vt 0.514612 0.296822
vt 0.528269 0.341844
vt 0.550447 0.383337
vt 0.580294 0.419706
vt 0.616663 0.449553
vt 0.658156 0.471731
vn -0.0980 0.0000 0.9952
vn -0.2903 0.0000 0.9569
vn -0.4714 0.0000 0.8819
vn -0.6344 0.0000 0.7730
vn -0.7730 0.0000 0.6344
vn -0.8819 0.0000 0.4714
vn -0.9569 -0.0000 0.2903
vn -0.9952 0.0000 0.0980
vn -0.9952 -0.0000 -0.0980
vn -0.9569 -0.0000 -0.2903
vn -0.8819 -0.0000 -0.4714
vn -0.7730 -0.0000 -0.6344
vn -0.6344 -0.0000 -0.7730
vn -0.4714 -0.0000 -0.8819
vn -0.2903 -0.0000 -0.9569
vn -0.0980 -0.0000 -0.9952
vn 0.0980 -0.0000 -0.9952
vn 0.2903 -0.0000 -0.9569
vn 0.4714 -0.0000 -0.8819
vn 0.6344 -0.0000 -0.7730
vn 0.7730 -0.0000 -0.6344
vn 0.8819 0.0000 -0.4714
vn 0.9569 0.0000 -0.2903
vn 0.9952 -0.0000 -0.0980
vn 0.9952 -0.0000 0.0980
vn 0.9569 0.0000 0.2903
vn 0.8819 0.0000 0.4714
vn 0.7730 0.0000 0.6344
vn 0.6344 0.0000 0.7730
vn 0.4714 0.0000 0.8819
vn 0.0000 1.0000 -0.0000
vn 0.2903 0.0000 0.9569
vn 0.0980 0.0000 0.9952
vn 0.0000 -1.0000 0.0000
vn -0.0878 0.4455 0.8910
vn -0.2599 0.4455 0.8567
vn -0.4220 0.4455 0.7896
vn -0.5680 0.4455 0.6921
vn -0.6921 0.4455 0.5680
vn -0.7896 0.4455 0.4220
vn -0.8567 0.4455 0.2599
vn -0.8910 0.4455 0.0878
vn -0.8910 0.4455 -0.0878
vn -0.8567 0.4455 -0.2599
vn -0.7896 0.4455 -0.4220
vn -0.6921 0.4455 -0.5680
vn -0.5680 0.4455 -0.6921
vn -0.4220 0.4455 -0.7896
vn -0.2599 0.4455 -0.8567
vn -0.0878 0.4455 -0.8910
vn 0.0878 0.4455 -0.8910
vn 0.2599 0.4455 -0.8567
vn 0.4220 0.4455 -0.7896
vn 0.5680 0.4455 -0.6921
vn 0.6921 0.4455 -0.5680
vn 0.7896 0.4455 -0.4220
vn 0.8567 0.4455 -0.2599
vn 0.8910 0.4455 -0.0878
vn 0.8910 0.4455 0.0878
vn 0.8567 0.4455 0.2599
vn 0.7896 0.4455 0.4220
vn 0.6921 0.4455 0.5680
vn 0.5680 0.4455 0.6921
vn 0.4220 0.4455 0.7896
vn 0.2599 0.4455 0.8567
vn 0.0878 0.4455 0.8910
usemtl None.002
s 1
f 1/1/1 2/2/1 3/3/1
f 4/4/2 5/5/2 2/2/2
f 6/6/3 7/7/3 5/5/3
f 8/8/4 9/9/4 7/7/4
f 10/10/5 11/11/5 9/9/5
f 12/12/6 13/13/6 11/11/6
f 14/14/7 15/15/7 13/13/7
f 16/16/8 17/17/8 15/15/8
f 18/18/9 19/19/9 17/17/9
f 20/20/10 21/21/10 19/19/10
f 22/22/11 23/23/11 21/21/11
f 24/24/12 25/25/12 23/23/12
f 26/26/13 27/27/13 25/25/13
f 28/28/14 29/29/14 27/27/14
f 30/30/15 31/31/15 29/29/15
f 32/32/16 33/33/16 31/31/16
f 34/34/17 35/35/17 33/33/17
f 36/36/18 37/37/18 35/35/18
f 38/38/19 39/39/19 37/37/19
f 40/40/20 41/41/20 39/39/20
f 42/42/21 43/43/21 41/41/21
f 44/44/22 45/45/22 43/43/22
f 46/46/23 47/47/23 45/45/23
f 48/48/24 49/49/24 47/47/24
f 50/50/25 51/51/25 49/49/25
f 52/52/26 53/53/26 51/51/26
f 54/54/27 55/55/27 53/53/27
f 56/56/28 57/57/28 55/55/28
f 58/58/29 59/59/29 57/57/29
f 60/60/30 61/61/30 59/59/30
f 38/62/31 22/63/31 6/64/31
f 62/65/32 63/66/32 61/61/32
f 64/67/33 3/68/33 63/66/33
f 31/69/34 47/70/34 63/71/34
f 65/72/35 66/73/35 67/74/35
f 67/74/36 66/73/36 68/75/36
f 68/75/37 66/73/37 69/76/37
f 69/76/38 66/73/38 70/77/38
f 70/77/39 66/73/39 71/78/39
f 71/78/40 66/73/40 72/79/40
f 72/79/41 66/73/41 73/80/41
f 73/80/42 66/73/42 74/81/42
f 74/81/43 66/73/43 75/82/43
f 75/82/44 66/73/44 76/83/44
f 76/83/45 66/73/45 77/84/45
f 77/84/46 66/73/46 78/85/46
f 78/85/47 66/73/47 79/86/47
f 79/86/48 66/73/48 80/87/48
f 80/87/49 66/73/49 81/88/49
f 81/88/50 66/73/50 82/89/50
f 82/89/51 66/73/51 83/90/51
f 83/90/52 66/73/52 84/91/52
f 84/91/53 66/73/53 85/92/53
f 85/92/54 66/73/54 86/93/54
f 86/93/55 66/73/55 87/94/55
f 87/94/56 66/73/56 88/95/56
f 88/95/57 66/73/57 89/96/57
f 89/96/58 66/73/58 90/97/58
f 90/97/59 66/73/59 91/98/59
f 91/98/60 66/73/60 92/99/60
f 92/99/61 66/73/61 93/100/61
f 93/100/62 66/73/62 94/101/62
f 94/101/63 66/73/63 95/102/63
f 95/102/64 66/73/64 96/103/64
f 81/104/34 89/105/34 97/106/34
f 96/103/65 66/73/65 97/107/65
f 97/107/66 66/73/66 65/72/66
f 98/108/35 99/109/35 100/110/35
f 100/110/36 99/109/36 101/111/36
f 101/111/37 99/109/37 102/112/37
f 102/112/38 99/109/38 103/113/38
f 103/113/39 99/109/39 104/114/39
f 104/114/40 99/109/40 105/115/40
f 105/115/41 99/109/41 106/116/41
f 106/116/42 99/109/42 107/117/42
f 107/117/43 99/109/43 108/118/43
f 108/118/44 99/109/44 109/119/44
f 109/119/45 99/109/45 110/120/45
f 110/120/46 99/109/46 111/121/46
f 111/121/47 99/109/47 112/122/47
f 112/122/48 99/109/48 113/123/48
f 113/123/49 99/109/49 114/124/49
f 114/124/50 99/109/50 115/125/50
f 115/125/51 99/109/51 116/126/51
f 116/126/52 99/109/52 117/127/52
f 117/127/53 99/109/53 118/128/53
f 118/128/54 99/109/54 119/129/54
f 119/129/55 99/109/55 120/130/55
f 120/130/56 99/109/56 121/131/56
f 121/131/57 99/109/57 122/132/57
f 122/132/58 99/109/58 123/133/58
f 123/133/59 99/109/59 124/134/59
f 124/134/60 99/109/60 125/135/60
f 125/135/61 99/109/61 126/136/61
f 126/136/62 99/109/62 127/137/62
f 127/137/63 99/109/63 128/138/63
f 128/138/64 99/109/64 129/139/64
f 114/140/34 122/141/34 130/142/34
f 129/139/65 99/109/65 130/143/65
f 130/143/66 99/109/66 98/108/66
f 131/144/35 132/145/35 133/146/35
f 133/146/36 132/145/36 134/147/36
f 134/147/37 132/145/37 135/148/37
f 135/148/38 132/145/38 136/149/38
f 136/149/39 132/145/39 137/150/39
f 137/150/40 132/145/40 138/151/40
f 138/151/41 132/145/41 139/152/41
f 139/152/42 132/145/42 140/153/42
f 140/153/43 132/145/43 141/154/43
f 141/154/44 132/145/44 142/155/44
f 142/155/45 132/145/45 143/156/45
f 143/156/46 132/145/46 144/157/46
f 144/157/47 132/145/47 145/158/47
f 145/158/48 132/145/48 146/159/48
f 146/159/49 132/145/49 147/160/49
f 147/160/50 132/145/50 148/161/50
f 148/161/51 132/145/51 149/162/51
f 149/162/52 132/145/52 150/163/52
f 150/163/53 132/145/53 151/164/53
f 151/164/54 132/145/54 152/165/54
f 152/165/55 132/145/55 153/166/55
f 153/166/56 132/145/56 154/167/56
f 154/167/57 132/145/57 155/168/57
f 155/168/58 132/145/58 156/169/58
f 156/169/59 132/145/59 157/170/59
f 157/170/60 132/145/60 158/171/60
f 158/171/61 132/145/61 159/172/61
f 159/172/62 132/145/62 160/173/62
f 160/173/63 132/145/63 161/174/63
f 161/174/64 132/145/64 162/175/64
f 147/176/34 155/177/34 163/178/34
f 162/175/65 132/145/65 163/179/65
f 163/179/66 132/145/66 131/144/66
f 1/1/1 4/4/1 2/2/1
f 4/4/2 6/6/2 5/5/2
f 6/6/3 8/8/3 7/7/3
f 8/8/4 10/10/4 9/9/4
f 10/10/5 12/12/5 11/11/5
f 12/12/6 14/14/6 13/13/6
f 14/14/7 16/16/7 15/15/7
f 16/16/8 18/18/8 17/17/8
f 18/18/9 20/20/9 19/19/9
f 20/20/10 22/22/10 21/21/10
f 22/22/11 24/24/11 23/23/11
f 24/24/12 26/26/12 25/25/12
f 26/26/13 28/28/13 27/27/13
f 28/28/14 30/30/14 29/29/14
f 30/30/15 32/32/15 31/31/15
f 32/32/16 34/34/16 33/33/16
f 34/34/17 36/36/17 35/35/17
f 36/36/18 38/38/18 37/37/18
f 38/38/19 40/40/19 39/39/19
f 40/40/20 42/42/20 41/41/20
f 42/42/21 44/44/21 43/43/21
f 44/44/22 46/46/22 45/45/22
f 46/46/23 48/48/23 47/47/23
f 48/48/24 50/50/24 49/49/24
f 50/50/25 52/52/25 51/51/25
f 52/52/26 54/54/26 53/53/26
f 54/54/27 56/56/27 55/55/27
f 56/56/28 58/58/28 57/57/28
f 58/58/29 60/60/29 59/59/29
f 60/60/30 62/65/30 61/61/30
f 6/64/31 4/180/31 1/181/31
f 1/181/31 64/182/31 6/64/31
f 64/182/31 62/183/31 6/64/31
f 62/183/31 60/184/31 58/185/31
f 58/185/31 56/186/31 54/187/31
f 54/187/31 52/188/31 50/189/31
f 50/189/31 48/190/31 54/187/31
f 48/190/31 46/191/31 54/187/31
f 46/191/31 44/192/31 42/193/31
f 42/193/31 40/194/31 38/62/31
f 38/62/31 36/195/31 30/196/31
f 36/195/31 34/197/31 30/196/31
f 34/197/31 32/198/31 30/196/31
f 30/196/31 28/199/31 26/200/31
f 26/200/31 24/201/31 22/63/31
f 22/63/31 20/202/31 14/203/31
f 20/202/31 18/204/31 14/203/31
f 18/204/31 16/205/31 14/203/31
f 14/203/31 12/206/31 10/207/31
f 10/207/31 8/208/31 6/64/31
f 62/183/31 58/185/31 6/64/31
f 58/185/31 54/187/31 6/64/31
f 46/191/31 42/193/31 54/187/31
f 42/193/31 38/62/31 54/187/31
f 30/196/31 26/200/31 38/62/31
f 26/200/31 22/63/31 38/62/31
f 14/203/31 10/207/31 22/63/31
f 10/207/31 6/64/31 22/63/31
f 6/64/31 54/187/31 38/62/31
f 62/65/32 64/67/32 63/66/32
f 64/67/33 1/209/33 3/68/33
f 63/71/34 3/210/34 2/211/34
f 2/211/34 5/212/34 7/213/34
f 7/213/34 9/214/34 11/215/34
f 11/215/34 13/216/34 15/217/34
f 15/217/34 17/218/34 19/219/34
f 19/219/34 21/220/34 23/221/34
f 23/221/34 25/222/34 27/223/34
f 27/223/34 29/224/34 31/69/34
f 31/69/34 33/225/34 35/226/34
f 35/226/34 37/227/34 39/228/34
f 39/228/34 41/229/34 43/230/34
f 43/230/34 45/231/34 47/70/34
f 47/70/34 49/232/34 51/233/34
f 51/233/34 53/234/34 55/235/34
f 55/235/34 57/236/34 59/237/34
f 59/237/34 61/238/34 63/71/34
f 63/71/34 2/211/34 15/217/34
f 2/211/34 7/213/34 15/217/34
f 7/213/34 11/215/34 15/217/34
f 15/217/34 19/219/34 31/69/34
f 19/219/34 23/221/34 31/69/34
f 23/221/34 27/223/34 31/69/34
f 31/69/34 35/226/34 47/70/34
f 35/226/34 39/228/34 47/70/34
f 39/228/34 43/230/34 47/70/34
f 47/70/34 51/233/34 63/71/34
f 51/233/34 55/235/34 63/71/34
f 55/235/34 59/237/34 63/71/34
f 63/71/34 15/217/34 31/69/34
f 97/106/34 65/239/34 67/240/34
f 67/240/34 68/241/34 69/242/34
f 69/242/34 70/243/34 71/244/34
f 71/244/34 72/245/34 69/242/34
f 72/245/34 73/246/34 69/242/34
f 73/246/34 74/247/34 75/248/34
f 75/248/34 76/249/34 77/250/34
f 77/250/34 78/251/34 79/252/34
f 79/252/34 80/253/34 77/250/34
f 80/253/34 81/104/34 77/250/34
f 81/104/34 82/254/34 83/255/34
f 83/255/34 84/256/34 85/257/34
f 85/257/34 86/258/34 87/259/34
f 87/259/34 88/260/34 85/257/34
f 88/260/34 89/105/34 85/257/34
f 89/105/34 90/261/34 91/262/34
f 91/262/34 92/263/34 93/264/34
f 93/264/34 94/265/34 95/266/34
f 95/266/34 96/267/34 93/264/34
f 96/267/34 97/106/34 93/264/34
f 97/106/34 67/240/34 73/246/34
f 67/240/34 69/242/34 73/246/34
f 73/246/34 75/248/34 81/104/34
f 75/248/34 77/250/34 81/104/34
f 81/104/34 83/255/34 89/105/34
f 83/255/34 85/257/34 89/105/34
f 89/105/34 91/262/34 97/106/34
f 91/262/34 93/264/34 97/106/34
f 97/106/34 73/246/34 81/104/34
f 130/142/34 98/268/34 100/269/34
f 100/269/34 101/270/34 102/271/34
f 102/271/34 103/272/34 104/273/34
f 104/273/34 105/274/34 102/271/34
f 105/274/34 106/275/34 102/271/34
f 106/275/34 107/276/34 108/277/34
f 108/277/34 109/278/34 110/279/34
f 110/279/34 111/280/34 112/281/34
f 112/281/34 113/282/34 110/279/34
f 113/282/34 114/140/34 110/279/34
f 114/140/34 115/283/34 116/284/34
f 116/284/34 117/285/34 118/286/34
f 118/286/34 119/287/34 120/288/34
f 120/288/34 121/289/34 118/286/34
f 121/289/34 122/141/34 118/286/34
f 122/141/34 123/290/34 124/291/34
f 124/291/34 125/292/34 126/293/34
f 126/293/34 127/294/34 128/295/34
f 128/295/34 129/296/34 126/293/34
f 129/296/34 130/142/34 126/293/34
f 130/142/34 100/269/34 106/275/34
f 100/269/34 102/271/34 106/275/34
f 106/275/34 108/277/34 114/140/34
f 108/277/34 110/279/34 114/140/34
f 114/140/34 116/284/34 122/141/34
f 116/284/34 118/286/34 122/141/34
f 122/141/34 124/291/34 130/142/34
f 124/291/34 126/293/34 130/142/34
f 130/142/34 106/275/34 114/140/34
f 163/178/34 131/297/34 133/298/34
f 133/298/34 134/299/34 135/300/34
f 135/300/34 136/301/34 137/302/34
f 137/302/34 138/303/34 135/300/34
f 138/303/34 139/304/34 135/300/34
f 139/304/34 140/305/34 141/306/34
f 141/306/34 142/307/34 143/308/34
f 143/308/34 144/309/34 145/310/34
f 145/310/34 146/311/34 143/308/34
f 146/311/34 147/176/34 143/308/34
f 147/176/34 148/312/34 149/313/34
f 149/313/34 150/314/34 151/315/34
f 151/315/34 152/316/34 153/317/34
f 153/317/34 154/318/34 151/315/34
f 154/318/34 155/177/34 151/315/34
f 155/177/34 156/319/34 157/320/34
f 157/320/34 158/321/34 159/322/34
f 159/322/34 160/323/34 161/324/34
f 161/324/34 162/325/34 159/322/34
f 162/325/34 163/178/34 159/322/34
f 163/178/34 133/298/34 139/304/34
f 133/298/34 135/300/34 139/304/34
f 139/304/34 141/306/34 147/176/34
f 141/306/34 143/308/34 147/176/34
f 147/176/34 149/313/34 155/177/34
f 149/313/34 151/315/34 155/177/34
f 155/177/34 157/320/34 163/178/34
f 157/320/34 159/322/34 163/178/34
f 163/178/34 139/304/34 147/176/34
