# Blender v3.5.0 OBJ File: 'low_poly_tree.blend'
# www.blender.org
mtllib wood.mtl
o Cylinder.001
v 0.000000 0.023602 1.248612
v 0.000000 3.617297 1.000000
v -0.882902 0.023602 0.882902
v -0.707107 3.617297 0.707107
v -1.248612 0.023602 0.000000
v -1.000000 3.617297 0.000000
v -0.882902 0.023602 -0.882902
v -0.707107 3.617297 -0.707107
v 0.000000 0.023602 -1.248612
v 0.000000 3.617297 -1.000000
v 0.882902 0.023602 -0.882902
v 0.707107 3.617297 -0.707107
v 1.248612 0.023602 0.000000
v 1.000000 3.617297 0.000000
v 0.882902 0.023602 0.882902
v 0.707107 3.617297 0.707107
v 0.000000 0.508666 1.000000
v -0.707107 0.508666 0.707107
v -1.000000 0.508666 0.000000
v -0.707107 0.508666 -0.707107
v 0.000000 0.508666 -1.000000
v 0.707107 0.508666 -0.707107
v 1.000000 0.508666 0.000000
v 0.707107 0.508666 0.707107
v 0.000000 3.405232 2.147911
v -0.000000 12.653913 0.029747
v -1.451952 3.606426 1.451952
v -0.021034 12.653913 0.021034
v -2.147911 3.405232 0.000000
v -0.029747 12.653913 0.000000
v -1.451952 3.606426 -1.451952
v -0.021034 12.653913 -0.021034
v 0.000000 3.405232 -2.147911
v -0.000000 12.653913 -0.029747
v 1.451952 3.606426 -1.451952
v 0.021034 12.653913 -0.021034
v 2.147911 3.405232 0.000000
v 0.029747 12.653913 0.000000
v 1.451952 3.606426 1.451952
v 0.021034 12.653913 0.021034
v 0.000000 4.432187 2.491007
v 0.000000 6.076533 1.998755
v 0.000000 7.720878 1.506503
v 0.000000 9.365223 1.014251
v 0.000000 11.009569 0.521999
v -0.369109 11.009569 0.369109
v -0.717184 9.365223 0.717184
v -1.065258 7.720878 1.065258
v -1.413333 6.076532 1.413333
v -1.761408 4.432187 1.761408
v -0.521999 11.009569 0.000000
v -1.014251 9.365223 0.000000
v -1.506503 7.720878 0.000000
v -1.998755 6.076532 0.000000
v -2.491007 4.432187 0.000000
v -0.369109 11.009569 -0.369109
v -0.717184 9.365223 -0.717184
v -1.065258 7.720878 -1.065258
v -1.413333 6.076532 -1.413333
v -1.761408 4.432187 -1.761408
v 0.000000 11.009569 -0.521999
v 0.000000 9.365223 -1.014251
v 0.000000 7.720878 -1.506503
v 0.000000 6.076532 -1.998755
v 0.000000 4.432187 -2.491007
v 0.369109 11.009569 -0.369109
v 0.717184 9.365223 -0.717184
v 1.065258 7.720878 -1.065258
v 1.413333 6.076532 -1.413333
v 1.761408 4.432187 -1.761408
v 0.521999 11.009569 0.000000
v 1.014251 9.365223 0.000000
v 1.506503 7.720878 0.000000
v 1.998755 6.076532 0.000000
v 2.491007 4.432187 0.000000
v 0.369109 11.009569 0.369109
v 0.717184 9.365223 0.717184
v 1.065258 7.720878 1.065258
v 1.413333 6.076532 1.413333
v 1.761408 4.432187 1.761408
v 0.000000 11.119188 0.602549
v -0.407313 11.026033 0.407313
v -0.602549 11.119188 -0.000000
v -0.407313 11.026033 -0.407313
v 0.000000 11.119188 -0.602549
v 0.407313 11.026033 -0.407313
v 0.602549 11.119188 -0.000000
v 0.407313 11.026033 0.407313
v 0.000000 9.400846 1.209765
v -0.817781 9.383324 0.817781
v -1.209765 9.400846 -0.000000
v -0.817781 9.383324 -0.817781
v 0.000000 9.400846 -1.209765
v 0.817781 9.383324 -0.817781
v 1.209765 9.400846 -0.000000
v 0.817781 9.383324 0.817781
v 0.000000 7.695515 1.734967
v -1.172809 7.753053 1.172809
v -1.734967 7.695514 -0.000000
v -1.172809 7.753053 -1.172809
v 0.000000 7.695514 -1.734967
v 1.172809 7.753053 -1.172809
v 1.734967 7.695514 -0.000000
v 1.172809 7.753053 1.172809
v 0.000000 5.993363 2.215446
v -1.497605 6.125822 1.497605
v -2.215446 5.993363 0.000000
v -1.497605 6.125822 -1.497605
v 0.000000 5.993363 -2.215446
v 1.497605 6.125822 -1.497605
v 2.215446 5.993363 0.000000
v 1.497605 6.125822 1.497605
v 0.000000 4.264048 2.839785
v -1.919647 4.472621 1.919647
v -2.839785 4.264047 -0.000000
v -1.919647 4.472621 -1.919647
v 0.000000 4.264047 -2.839785
v 1.919647 4.472621 -1.919647
v 2.839785 4.264047 -0.000000
v 1.919647 4.472621 1.919647
v 0.000000 2.501697 3.120613
v -2.109483 2.787841 2.109483
v -3.120613 2.501697 -0.000000
v -2.109483 2.787841 -2.109483
v 0.000000 2.501697 -3.120613
v 2.109483 2.787841 -2.109483
v 3.120613 2.501697 -0.000000
v 2.109483 2.787841 2.109483
vt 1.000000 1.000000
vt 0.875000 0.540741
vt 1.000000 0.540741
vt 0.875000 1.000000
vt 0.750000 0.540741
vt 0.750000 1.000000
vt 0.625000 0.540741
vt 0.625000 1.000000
vt 0.500000 0.540741
vt 0.500000 1.000000
vt 0.375000 0.540741
vt 0.375000 1.000000
vt 0.250000 0.540741
vt 0.010000 0.250000
vt 0.250000 0.010000
vt 0.490000 0.250000
vt 0.250000 1.000000
vt 0.125000 0.540741
vt 0.125000 1.000000
vt 0.000000 0.540741
vt 0.919706 0.080294
vt 0.580294 0.080294
vt 0.580294 0.419706
vt 0.000000 0.500000
vt 0.125000 0.500000
vt 0.250000 0.500000
vt 0.375000 0.500000
vt 0.500000 0.500000
vt 0.625000 0.500000
vt 0.750000 0.500000
vt 0.875000 0.500000
vt 1.000000 0.500000
vt 0.419706 0.419706
vt 0.250000 0.490000
vt 0.080294 0.419706
vt 0.080294 0.080294
vt 0.419706 0.080294
vt 0.000000 1.000000
vt 0.750000 0.490000
vt 0.919706 0.419706
vt 0.990000 0.250000
vt 0.750000 0.010000
vt 0.510000 0.250000
vt 1.000000 0.917501
vt 0.875000 1.000000
vt 0.875000 0.917501
vt 0.750000 0.917501
vt 0.625000 1.000000
vt 0.625000 0.917501
vt 0.500000 0.917501
vt 0.375000 1.000000
vt 0.375000 0.917501
vt 0.250000 0.917501
vt 0.010000 0.250000
vt 0.250000 0.010000
vt 0.490000 0.250000
vt 0.125000 1.000000
vt 0.125000 0.917501
vt 0.000000 0.917501
vt 0.915977 0.084023
vt 0.584023 0.084023
vt 0.584023 0.415977
vt 0.125000 0.500000
vt 0.000000 0.583333
vt 0.000000 0.500000
vt 0.125000 0.585382
vt 0.000000 0.666667
vt 0.000000 0.585383
vt 0.125000 0.669165
vt 0.000000 0.750000
vt 0.000000 0.669165
vt 0.125000 0.751630
vt 0.000000 0.833333
vt 0.000000 0.751631
vt 0.125000 0.834251
vt 0.000000 0.916667
vt 0.000000 0.834251
vt 0.250000 0.583333
vt 0.250000 0.500000
vt 0.250000 0.666667
vt 0.250000 0.585382
vt 0.250000 0.750000
vt 0.250000 0.669164
vt 0.250000 0.833333
vt 0.250000 0.751631
vt 0.250000 0.916667
vt 0.250000 0.834251
vt 0.375000 0.500000
vt 0.375000 0.585382
vt 0.375000 0.669164
vt 0.375000 0.751630
vt 0.375000 0.834251
vt 0.500000 0.583333
vt 0.500000 0.500000
vt 0.500000 0.666667
vt 0.500000 0.585382
vt 0.500000 0.750000
vt 0.500000 0.669164
vt 0.500000 0.833333
vt 0.500000 0.751631
vt 0.500000 0.916667
vt 0.500000 0.834251
vt 0.625000 0.500000
vt 0.625000 0.585382
vt 0.625000 0.669164
vt 0.625000 0.751630
vt 0.625000 0.834251
vt 0.750000 0.583333
vt 0.750000 0.500000
vt 0.750000 0.666667
vt 0.750000 0.585382
vt 0.750000 0.750000
vt 0.750000 0.669164
vt 0.750000 0.833333
vt 0.750000 0.751631
vt 0.750000 0.916667
vt 0.750000 0.834251
vt 0.875000 0.500000
vt 0.875000 0.585382
vt 0.875000 0.669165
vt 0.875000 0.751630
vt 0.875000 0.834251
vt 1.000000 0.583333
vt 1.000000 0.500000
vt 1.000000 0.666667
vt 1.000000 0.585383
vt 1.000000 0.750000
vt 1.000000 0.669165
vt 1.000000 0.833333
vt 1.000000 0.751631
vt 1.000000 0.916667
vt 1.000000 0.834251
vt 0.125000 0.916667
vt 0.375000 0.916667
vt 0.625000 0.916667
vt 0.875000 0.916667
vt 0.875000 0.833333
vt 0.625000 0.833333
vt 0.375000 0.833333
vt 0.125000 0.833333
vt 0.875000 0.750000
vt 0.625000 0.750000
vt 0.375000 0.750000
vt 0.125000 0.750000
vt 0.875000 0.666667
vt 0.625000 0.666667
vt 0.375000 0.666667
vt 0.125000 0.666667
vt 0.875000 0.583333
vt 0.625000 0.583333
vt 0.375000 0.583333
vt 0.125000 0.583333
vt 0.750000 0.485146
vt 0.919706 0.419706
vt 0.915977 0.415977
vt 0.985146 0.250000
vt 0.990000 0.250000
vt 0.919706 0.080294
vt 0.750000 0.014854
vt 0.750000 0.010000
vt 0.580294 0.080294
vt 0.514854 0.250000
vt 0.510000 0.250000
vt 0.580294 0.419706
vt 0.750000 0.490000
vt 1.000000 1.000000
vt 0.750000 1.000000
vt 0.500000 1.000000
vt 0.250000 1.000000
vt 0.419706 0.419706
vt 0.250000 0.490000
vt 0.080294 0.419706
vt 0.080294 0.080294
vt 0.419706 0.080294
vt 0.000000 1.000000
vn -0.3827 0.0000 0.9239
vn -0.9239 0.0000 0.3827
vn -0.9239 0.0000 -0.3827
vn -0.3827 0.0000 -0.9239
vn 0.3827 0.0000 -0.9239
vn 0.9239 0.0000 -0.3827
vn 0.0000 1.0000 0.0000
vn 0.9239 0.0000 0.3827
vn 0.3827 0.0000 0.9239
vn 0.0000 -1.0000 0.0000
vn 0.3459 0.4280 0.8350
vn 0.8350 0.4280 0.3459
vn 0.8350 0.4280 -0.3459
vn 0.3459 0.4280 -0.8350
vn -0.3459 0.4280 -0.8350
vn -0.8350 0.4280 -0.3459
vn -0.8350 0.4280 0.3459
vn -0.3459 0.4280 0.8350
vn -0.4676 0.3076 0.8287
vn -0.8287 0.3076 0.4676
vn -0.8287 0.3076 -0.4676
vn -0.4676 0.3076 -0.8287
vn 0.4676 0.3076 -0.8287
vn 0.8287 0.3076 -0.4676
vn 0.8287 0.3076 0.4676
vn 0.4676 0.3076 0.8287
vn 0.3822 0.2865 0.8785
vn 0.3626 0.3923 0.8454
vn 0.3792 0.3513 0.8560
vn 0.3877 0.3653 0.8463
vn 0.4097 0.3586 0.8388
vn 0.8785 0.2865 0.3822
vn 0.8454 0.3923 0.3626
vn 0.8560 0.3513 0.3792
vn 0.8463 0.3653 0.3877
vn 0.8388 0.3586 0.4097
vn 0.8785 0.2865 -0.3822
vn 0.8454 0.3923 -0.3626
vn 0.8560 0.3513 -0.3792
vn 0.8463 0.3653 -0.3877
vn 0.8388 0.3586 -0.4097
vn 0.3822 0.2865 -0.8785
vn 0.3626 0.3923 -0.8454
vn 0.3792 0.3513 -0.8560
vn 0.3877 0.3653 -0.8463
vn 0.4097 0.3586 -0.8388
vn -0.3822 0.2865 -0.8785
vn -0.3626 0.3923 -0.8454
vn -0.3792 0.3513 -0.8560
vn -0.3877 0.3653 -0.8463
vn -0.4097 0.3586 -0.8388
vn -0.8785 0.2865 -0.3822
vn -0.8454 0.3923 -0.3626
vn -0.8560 0.3513 -0.3792
vn -0.8463 0.3653 -0.3877
vn -0.8388 0.3586 -0.4097
vn -0.8785 0.2865 0.3822
vn -0.8454 0.3923 0.3626
vn -0.8560 0.3513 0.3792
vn -0.8463 0.3653 0.3877
vn -0.8388 0.3586 0.4097
vn -0.3822 0.2865 0.8785
vn -0.3626 0.3923 0.8454
vn -0.3792 0.3513 0.8560
vn -0.3877 0.3653 0.8463
vn -0.4097 0.3586 0.8388
vn 0.1199 -0.9497 0.2894
vn 0.2894 -0.9497 0.1199
vn 0.2894 -0.9497 -0.1199
vn 0.1199 -0.9497 -0.2894
vn -0.1199 -0.9497 -0.2894
vn -0.2894 -0.9497 -0.1199
vn -0.2894 -0.9497 0.1199
vn -0.1199 -0.9497 0.2894
vn -0.0522 -0.9907 0.1260
vn -0.1260 -0.9907 0.0522
vn -0.1260 -0.9907 -0.0522
vn -0.0522 -0.9907 -0.1260
vn 0.0522 -0.9907 -0.1260
vn 0.1260 -0.9907 -0.0522
vn 0.1260 -0.9907 0.0522
vn 0.0522 -0.9907 0.1260
vn -0.0854 -0.9748 0.2062
vn -0.2062 -0.9748 0.0854
vn -0.2062 -0.9748 -0.0854
vn -0.0854 -0.9748 -0.2062
vn 0.0854 -0.9748 -0.2062
vn 0.2062 -0.9748 -0.0854
vn 0.2062 -0.9748 0.0854
vn 0.0854 -0.9748 0.2062
vn -0.1564 -0.9127 0.3775
vn -0.3775 -0.9127 0.1564
vn -0.3775 -0.9127 -0.1564
vn -0.1564 -0.9127 -0.3775
vn 0.1564 -0.9127 -0.3775
vn 0.3775 -0.9127 -0.1564
vn 0.3775 -0.9127 0.1564
vn 0.1564 -0.9127 0.3775
vn -0.0735 -0.9814 0.1773
vn -0.1773 -0.9814 0.0735
vn -0.1773 -0.9814 -0.0735
vn -0.0735 -0.9814 -0.1773
vn 0.0735 -0.9814 -0.1773
vn 0.1773 -0.9814 -0.0735
vn 0.1773 -0.9814 0.0735
vn 0.0735 -0.9814 0.1773
vn 0.2206 -0.7124 -0.6662
vn 0.6637 -0.7145 -0.2212
vn 0.6662 -0.7124 0.2206
vn 0.2212 -0.7145 0.6637
vn -0.2206 -0.7124 0.6662
vn -0.6637 -0.7145 0.2212
vn -0.6662 -0.7124 -0.2206
vn -0.2212 -0.7145 -0.6637
vn -0.3618 0.3260 0.8734
vn -0.8734 0.3260 0.3618
vn -0.8734 0.3260 -0.3618
vn -0.3618 0.3260 -0.8734
vn 0.3618 0.3260 -0.8734
vn 0.8734 0.3260 -0.3618
vn 0.8734 0.3260 0.3618
vn 0.3618 0.3260 0.8734
vn 0.0000 -0.9607 -0.2777
vn 0.2777 -0.9607 0.0000
vn 0.0000 -0.9607 0.2777
vn -0.2777 -0.9607 0.0000
vn 0.3688 0.2666 0.8905
vn 0.3538 0.3813 0.8541
vn 0.3607 0.3338 0.8709
vn 0.3590 0.3464 0.8667
vn 0.3600 0.3391 0.8691
vn 0.8905 0.2666 0.3688
vn 0.8541 0.3813 0.3538
vn 0.8709 0.3338 0.3607
vn 0.8667 0.3464 0.3590
vn 0.8691 0.3391 0.3600
vn 0.8905 0.2666 -0.3688
vn 0.8541 0.3813 -0.3538
vn 0.8709 0.3338 -0.3607
vn 0.8667 0.3464 -0.3590
vn 0.8691 0.3391 -0.3600
vn 0.3688 0.2666 -0.8905
vn 0.3538 0.3813 -0.8541
vn 0.3607 0.3338 -0.8709
vn 0.3590 0.3464 -0.8667
vn 0.3600 0.3391 -0.8691
vn -0.3688 0.2666 -0.8905
vn -0.3538 0.3813 -0.8541
vn -0.3607 0.3338 -0.8709
vn -0.3590 0.3464 -0.8667
vn -0.3600 0.3391 -0.8691
vn -0.8905 0.2666 -0.3688
vn -0.8541 0.3813 -0.3538
vn -0.8709 0.3338 -0.3607
vn -0.8667 0.3464 -0.3590
vn -0.8691 0.3391 -0.3600
vn -0.8905 0.2666 0.3688
vn -0.8541 0.3813 0.3538
vn -0.8709 0.3338 0.3607
vn -0.8667 0.3464 0.3590
vn -0.8691 0.3391 0.3600
vn -0.3688 0.2666 0.8905
vn -0.3538 0.3813 0.8541
vn -0.3607 0.3338 0.8709
vn -0.3590 0.3464 0.8667
vn -0.3600 0.3391 0.8691
vn 0.2433 -0.5743 0.7816
vn 0.7816 -0.5743 0.2433
vn 0.7816 -0.5743 -0.2433
vn 0.2433 -0.5743 -0.7816
vn -0.2433 -0.5743 -0.7816
vn -0.7816 -0.5743 -0.2433
vn -0.7816 -0.5743 0.2433
vn -0.2433 -0.5743 0.7816
vn -0.0647 -0.9817 0.1789
vn -0.1789 -0.9817 0.0647
vn -0.1789 -0.9817 -0.0647
vn -0.0647 -0.9817 -0.1789
vn 0.0647 -0.9817 -0.1789
vn 0.1789 -0.9817 -0.0647
vn 0.1789 -0.9817 0.0647
vn 0.0647 -0.9817 0.1789
vn 0.0041 -0.9939 -0.1103
vn 0.1103 -0.9939 -0.0041
vn 0.1103 -0.9939 0.0041
vn 0.0041 -0.9939 0.1103
vn -0.0041 -0.9939 0.1103
vn -0.1103 -0.9939 0.0041
vn -0.1103 -0.9939 -0.0041
vn -0.0041 -0.9939 -0.1103
vn 0.0888 -0.9299 -0.3569
vn 0.3569 -0.9299 -0.0888
vn 0.3569 -0.9299 0.0888
vn 0.0888 -0.9299 0.3569
vn -0.0888 -0.9299 0.3569
vn -0.3569 -0.9299 0.0888
vn -0.3569 -0.9299 -0.0888
vn -0.0888 -0.9299 -0.3569
vn 0.1096 -0.8954 -0.4316
vn 0.4316 -0.8954 -0.1096
vn 0.4316 -0.8954 0.1096
vn 0.1096 -0.8954 0.4316
vn -0.1096 -0.8954 0.4316
vn -0.4316 -0.8954 0.1096
vn -0.4316 -0.8954 -0.1096
vn -0.1096 -0.8954 -0.4316
vn 0.2212 -0.7145 -0.6637
vn 0.6662 -0.7124 -0.2206
vn 0.6637 -0.7145 0.2212
vn 0.2206 -0.7124 0.6662
vn -0.2212 -0.7145 0.6637
vn -0.6662 -0.7124 0.2206
vn -0.6637 -0.7145 -0.2212
vn -0.2206 -0.7124 -0.6662
usemtl madera
s off
f 2/1/1 18/2/1 17/3/1
f 4/4/2 19/5/2 18/2/2
f 6/6/3 20/7/3 19/5/3
f 8/8/4 21/9/4 20/7/4
f 10/10/5 22/11/5 21/9/5
f 12/12/6 23/13/6 22/11/6
f 14/14/7 10/15/7 6/16/7
f 14/17/8 24/18/8 23/13/8
f 16/19/9 17/20/9 24/18/9
f 7/21/10 11/22/10 15/23/10
f 24/18/11 1/24/11 15/25/11
f 23/13/12 15/25/12 13/26/12
f 22/11/13 13/26/13 11/27/13
f 21/9/14 11/27/14 9/28/14
f 20/7/15 9/28/15 7/29/15
f 19/5/16 7/29/16 5/30/16
f 18/2/17 5/30/17 3/31/17
f 17/3/18 3/31/18 1/32/18
f 2/1/1 4/4/1 18/2/1
f 4/4/2 6/6/2 19/5/2
f 6/6/3 8/8/3 20/7/3
f 8/8/4 10/10/4 21/9/4
f 10/10/5 12/12/5 22/11/5
f 12/12/6 14/17/6 23/13/6
f 6/16/7 4/33/7 2/34/7
f 2/34/7 16/35/7 14/14/7
f 14/14/7 12/36/7 10/15/7
f 10/15/7 8/37/7 6/16/7
f 6/16/7 2/34/7 14/14/7
f 14/17/8 16/19/8 24/18/8
f 16/19/9 2/38/9 17/20/9
f 15/23/10 1/39/10 3/40/10
f 3/40/10 5/41/10 7/21/10
f 7/21/10 9/42/10 11/22/10
f 11/22/10 13/43/10 15/23/10
f 15/23/10 3/40/10 7/21/10
f 24/18/11 17/20/11 1/24/11
f 23/13/12 24/18/12 15/25/12
f 22/11/13 23/13/13 13/26/13
f 21/9/14 22/11/14 11/27/14
f 20/7/15 21/9/15 9/28/15
f 19/5/16 20/7/16 7/29/16
f 18/2/17 19/5/17 5/30/17
f 17/3/18 18/2/18 3/31/18
usemtl hojas
f 81/44/19 28/45/19 82/46/19
f 28/45/20 83/47/20 82/46/20
f 83/47/21 32/48/21 84/49/21
f 32/48/22 85/50/22 84/49/22
f 85/50/23 36/51/23 86/52/23
f 36/51/24 87/53/24 86/52/24
f 38/54/7 34/55/7 30/56/7
f 87/53/25 40/57/25 88/58/25
f 40/57/26 81/59/26 88/58/26
f 31/60/10 35/61/10 39/62/10
f 128/63/27 41/64/27 121/65/27
f 120/66/28 42/67/28 113/68/28
f 112/69/29 43/70/29 105/71/29
f 104/72/30 44/73/30 97/74/30
f 96/75/31 45/76/31 89/77/31
f 75/78/32 128/63/32 127/79/32
f 74/80/33 120/66/33 119/81/33
f 73/82/34 112/69/34 111/83/34
f 72/84/35 104/72/35 103/85/35
f 71/86/36 96/75/36 95/87/36
f 126/88/37 75/78/37 127/79/37
f 118/89/38 74/80/38 119/81/38
f 110/90/39 73/82/39 111/83/39
f 102/91/40 72/84/40 103/85/40
f 94/92/41 71/86/41 95/87/41
f 65/93/42 126/88/42 125/94/42
f 64/95/43 118/89/43 117/96/43
f 63/97/44 110/90/44 109/98/44
f 62/99/45 102/91/45 101/100/45
f 61/101/46 94/92/46 93/102/46
f 124/103/47 65/93/47 125/94/47
f 116/104/48 64/95/48 117/96/48
f 108/105/49 63/97/49 109/98/49
f 100/106/50 62/99/50 101/100/50
f 92/107/51 61/101/51 93/102/51
f 55/108/52 124/103/52 123/109/52
f 54/110/53 116/104/53 115/111/53
f 53/112/54 108/105/54 107/113/54
f 52/114/55 100/106/55 99/115/55
f 51/116/56 92/107/56 91/117/56
f 122/118/57 55/108/57 123/109/57
f 114/119/58 54/110/58 115/111/58
f 106/120/59 53/112/59 107/113/59
f 98/121/60 52/114/60 99/115/60
f 90/122/61 51/116/61 91/117/61
f 41/123/62 122/118/62 121/124/62
f 42/125/63 114/119/63 113/126/63
f 43/127/64 106/120/64 105/128/64
f 44/129/65 98/121/65 97/130/65
f 45/131/66 90/122/66 89/132/66
f 88/58/67 45/76/67 76/133/67
f 71/86/68 88/58/68 76/133/68
f 86/52/69 71/86/69 66/134/69
f 61/101/70 86/52/70 66/134/70
f 84/49/71 61/101/71 56/135/71
f 51/116/72 84/49/72 56/135/72
f 82/46/73 51/116/73 46/136/73
f 45/131/74 82/46/74 46/136/74
f 44/129/75 90/122/75 47/137/75
f 90/122/76 52/114/76 47/137/76
f 52/114/77 92/107/77 57/138/77
f 92/107/78 62/99/78 57/138/78
f 62/99/79 94/92/79 67/139/79
f 94/92/80 72/84/80 67/139/80
f 72/84/81 96/75/81 77/140/81
f 96/75/82 44/73/82 77/140/82
f 43/127/83 98/121/83 48/141/83
f 98/121/84 53/112/84 48/141/84
f 53/112/85 100/106/85 58/142/85
f 100/106/86 63/97/86 58/142/86
f 63/97/87 102/91/87 68/143/87
f 102/91/88 73/82/88 68/143/88
f 73/82/89 104/72/89 78/144/89
f 104/72/90 43/70/90 78/144/90
f 42/125/91 106/120/91 49/145/91
f 106/120/92 54/110/92 49/145/92
f 54/110/93 108/105/93 59/146/93
f 108/105/94 64/95/94 59/146/94
f 64/95/95 110/90/95 69/147/95
f 110/90/96 74/80/96 69/147/96
f 74/80/97 112/69/97 79/148/97
f 112/69/98 42/67/98 79/148/98
f 41/123/99 114/119/99 50/149/99
f 114/119/100 55/108/100 50/149/100
f 55/108/101 116/104/101 60/150/101
f 116/104/102 65/93/102 60/150/102
f 65/93/103 118/89/103 70/151/103
f 118/89/104 75/78/104 70/151/104
f 75/78/105 120/66/105 80/152/105
f 120/66/106 41/64/106 80/152/106
f 25/153/107 122/154/107 27/155/107
f 29/156/108 122/154/108 123/157/108
f 29/156/109 124/158/109 31/60/109
f 33/159/110 124/158/110 125/160/110
f 33/159/111 126/161/111 35/61/111
f 37/162/112 126/161/112 127/163/112
f 37/162/113 128/164/113 39/62/113
f 25/153/114 128/164/114 121/165/114
f 81/44/115 26/166/115 28/45/115
f 28/45/116 30/167/116 83/47/116
f 83/47/117 30/167/117 32/48/117
f 32/48/118 34/168/118 85/50/118
f 85/50/119 34/168/119 36/51/119
f 36/51/120 38/169/120 87/53/120
f 30/56/7 28/170/7 26/171/7
f 26/171/7 40/172/7 38/54/7
f 38/54/7 36/173/7 34/55/7
f 34/55/7 32/174/7 30/56/7
f 30/56/7 26/171/7 38/54/7
f 87/53/121 38/169/121 40/57/121
f 40/57/122 26/175/122 81/59/122
f 39/62/123 25/153/123 27/155/123
f 27/155/124 29/156/124 31/60/124
f 31/60/125 33/159/125 35/61/125
f 35/61/126 37/162/126 39/62/126
f 39/62/10 27/155/10 31/60/10
f 128/63/127 80/152/127 41/64/127
f 120/66/128 79/148/128 42/67/128
f 112/69/129 78/144/129 43/70/129
f 104/72/130 77/140/130 44/73/130
f 96/75/131 76/133/131 45/76/131
f 75/78/132 80/152/132 128/63/132
f 74/80/133 79/148/133 120/66/133
f 73/82/134 78/144/134 112/69/134
f 72/84/135 77/140/135 104/72/135
f 71/86/136 76/133/136 96/75/136
f 126/88/137 70/151/137 75/78/137
f 118/89/138 69/147/138 74/80/138
f 110/90/139 68/143/139 73/82/139
f 102/91/140 67/139/140 72/84/140
f 94/92/141 66/134/141 71/86/141
f 65/93/142 70/151/142 126/88/142
f 64/95/143 69/147/143 118/89/143
f 63/97/144 68/143/144 110/90/144
f 62/99/145 67/139/145 102/91/145
f 61/101/146 66/134/146 94/92/146
f 124/103/147 60/150/147 65/93/147
f 116/104/148 59/146/148 64/95/148
f 108/105/149 58/142/149 63/97/149
f 100/106/150 57/138/150 62/99/150
f 92/107/151 56/135/151 61/101/151
f 55/108/152 60/150/152 124/103/152
f 54/110/153 59/146/153 116/104/153
f 53/112/154 58/142/154 108/105/154
f 52/114/155 57/138/155 100/106/155
f 51/116/156 56/135/156 92/107/156
f 122/118/157 50/149/157 55/108/157
f 114/119/158 49/145/158 54/110/158
f 106/120/159 48/141/159 53/112/159
f 98/121/160 47/137/160 52/114/160
f 90/122/161 46/136/161 51/116/161
f 41/123/162 50/149/162 122/118/162
f 42/125/163 49/145/163 114/119/163
f 43/127/164 48/141/164 106/120/164
f 44/129/165 47/137/165 98/121/165
f 45/131/166 46/136/166 90/122/166
f 88/58/167 81/59/167 45/76/167
f 71/86/168 87/53/168 88/58/168
f 86/52/169 87/53/169 71/86/169
f 61/101/170 85/50/170 86/52/170
f 84/49/171 85/50/171 61/101/171
f 51/116/172 83/47/172 84/49/172
f 82/46/173 83/47/173 51/116/173
f 45/131/174 81/44/174 82/46/174
f 44/129/175 89/132/175 90/122/175
f 90/122/176 91/117/176 52/114/176
f 52/114/177 91/117/177 92/107/177
f 92/107/178 93/102/178 62/99/178
f 62/99/179 93/102/179 94/92/179
f 94/92/180 95/87/180 72/84/180
f 72/84/181 95/87/181 96/75/181
f 96/75/182 89/77/182 44/73/182
f 43/127/183 97/130/183 98/121/183
f 98/121/184 99/115/184 53/112/184
f 53/112/185 99/115/185 100/106/185
f 100/106/186 101/100/186 63/97/186
f 63/97/187 101/100/187 102/91/187
f 102/91/188 103/85/188 73/82/188
f 73/82/189 103/85/189 104/72/189
f 104/72/190 97/74/190 43/70/190
f 42/125/191 105/128/191 106/120/191
f 106/120/192 107/113/192 54/110/192
f 54/110/193 107/113/193 108/105/193
f 108/105/194 109/98/194 64/95/194
f 64/95/195 109/98/195 110/90/195
f 110/90/196 111/83/196 74/80/196
f 74/80/197 111/83/197 112/69/197
f 112/69/198 105/71/198 42/67/198
f 41/123/199 113/126/199 114/119/199
f 114/119/200 115/111/200 55/108/200
f 55/108/201 115/111/201 116/104/201
f 116/104/202 117/96/202 65/93/202
f 65/93/203 117/96/203 118/89/203
f 118/89/204 119/81/204 75/78/204
f 75/78/205 119/81/205 120/66/205
f 120/66/206 113/68/206 41/64/206
f 25/153/207 121/165/207 122/154/207
f 29/156/208 27/155/208 122/154/208
f 29/156/209 123/157/209 124/158/209
f 33/159/210 31/60/210 124/158/210
f 33/159/211 125/160/211 126/161/211
f 37/162/212 35/61/212 126/161/212
f 37/162/213 127/163/213 128/164/213
f 25/153/214 39/62/214 128/164/214
