# Blender v3.5.0 OBJ File: 'map.blend'
# www.blender.org
mtllib map.mtl
o 平面.001
v 4.208099 -0.000001 -60.271072
v -3.741692 0.000001 -60.712448
v 5.006824 -0.000000 -80.245636
v -2.950634 0.000000 -80.515297
v 5.006824 -0.000000 -80.245636
v -2.950634 0.000000 -80.515297
v 5.323727 -0.000000 -100.300835
v -2.638206 0.000000 -100.261826
v 5.323727 -0.000000 -100.300835
v -2.638206 0.000000 -100.261826
v 4.883984 -0.000000 -120.431229
v -3.061970 0.000000 -119.925537
v 4.883984 -0.000000 -120.431229
v -3.061970 0.000000 -119.925537
v 2.722446 -0.000000 -140.607269
v -5.135088 0.000000 -139.321579
v 2.722446 -0.000000 -140.607269
v -5.135088 0.000000 -139.321579
v -6.083242 -0.000000 -160.627258
v -11.799801 0.000000 -155.085144
v -6.083242 -0.000000 -160.627258
v -11.799801 0.000000 -155.085144
v -23.992157 -0.000000 -172.789734
v -26.296497 0.000000 -165.168457
v -23.992157 -0.000000 -172.789734
v -26.296497 0.000000 -165.168457
v -44.483124 -0.000000 -175.219193
v -45.270710 0.000000 -167.296219
v -44.483124 -0.000000 -175.219193
v -45.270710 0.000000 -167.296219
v -64.497307 -0.000000 -176.783478
v -64.940475 0.000000 -168.833801
v -64.497307 -0.000000 -176.783478
v -64.940475 0.000000 -168.833801
v -84.639236 -0.000000 -177.304092
v -84.587067 0.000000 -169.342239
v -84.639236 -0.000000 -177.304092
v -84.587067 0.000000 -169.342239
v -104.835892 -0.000001 -176.612061
v -104.166229 0.000001 -168.678238
v -104.835892 -0.000001 -176.612061
v -104.166229 0.000001 -168.678238
v -124.988945 -0.000000 -173.941376
v -123.462715 0.000000 -166.126984
v -124.988945 -0.000000 -173.941376
v -123.462715 0.000000 -166.126984
v -144.789490 -0.000000 -164.710480
v -139.143051 0.000000 -159.096939
v -144.789490 -0.000000 -164.710480
v -139.143051 0.000000 -159.096939
v -156.534836 -0.000000 -146.492508
v -148.779922 0.000000 -144.688248
v -156.534836 -0.000000 -146.492508
v -148.779922 0.000000 -144.688248
v -159.392395 -0.000000 -126.257874
v -151.463531 0.000000 -125.531906
v -159.392395 -0.000000 -126.257874
v -151.463531 0.000000 -125.531906
v -160.260178 -0.000000 -106.041206
v -152.298309 0.000000 -105.990540
v -160.260178 -0.000000 -106.041206
v -152.298309 0.000000 -105.990540
v -160.153320 -0.000000 -86.008095
v -152.194031 0.000000 -86.216667
v -160.153320 -0.000000 -86.008095
v -152.194031 0.000000 -86.216667
v -159.468155 -0.000000 -66.045013
v -151.513733 0.000000 -66.393051
v -159.468155 -0.000000 -66.045013
v -151.513733 0.000000 -66.393051
v -158.470337 -0.000000 -46.213463
v -150.512314 0.000000 -46.465820
v -158.470337 -0.000000 -46.213463
v -150.512314 0.000000 -46.465820
v -158.383270 -0.000000 -26.495983
v -150.422119 0.000000 -26.376764
v -158.383270 -0.000000 -26.495983
v -150.422119 0.000000 -26.376764
v -158.955399 0.000000 -6.683593
v -150.998535 -0.000000 -6.396678
v -158.955399 0.000000 -6.683593
v -150.998535 -0.000000 -6.396678
v -159.569885 -0.000000 13.265715
v -151.609863 0.000000 13.444953
v -159.569885 -0.000000 13.265715
v -151.609863 0.000000 13.444953
v -160.002884 -0.000000 33.163822
v -152.042969 0.000000 33.347416
v -160.002884 -0.000000 33.163822
v -152.042969 0.000000 33.347416
v -160.388931 -0.000000 53.108231
v -152.427490 0.000000 53.205582
v -160.388931 -0.000000 53.108231
v -152.427490 0.000000 53.205582
v -160.446091 -0.000001 73.077324
v -152.484116 0.000001 73.045944
v -160.446091 -0.000001 73.077324
v -152.484116 0.000001 73.045944
v -160.297913 -0.000000 93.035614
v -152.337097 0.000000 92.896385
v -160.297913 -0.000000 93.035614
v -152.337097 0.000000 92.896385
v -159.520844 -0.000001 113.091393
v -151.572906 0.000001 112.617554
v -159.520844 -0.000001 113.091393
v -151.572906 0.000001 112.617554
v -158.059967 -0.000001 133.071884
v -150.131668 0.000001 132.339828
v -158.059967 -0.000001 133.071884
v -150.131668 0.000001 132.339828
v -153.680786 -0.000001 154.080765
v -146.789734 0.000000 150.092361
v -153.680786 -0.000001 154.080765
v -146.789734 0.000000 150.092361
v -138.185577 -0.000000 169.490906
v -134.258240 0.000000 162.564865
v -138.185577 -0.000000 169.490906
v -134.258240 0.000000 162.564865
v -117.559029 -0.000000 174.787552
v -116.453156 0.000000 166.902695
v -117.559029 -0.000000 174.787552
v -116.453156 0.000000 166.902695
v -97.356163 -0.000001 176.696030
v -97.039055 0.000001 168.740326
v -97.356163 -0.000001 176.696030
v -97.039055 0.000001 168.740326
v -77.261703 0.000000 176.935577
v -77.328674 -0.000000 168.973816
v -77.261703 0.000000 176.935577
v -77.328674 -0.000000 168.973816
v -57.048889 -0.000000 175.919815
v -57.793198 0.000000 167.992645
v -57.048889 -0.000000 175.919815
v -57.793198 0.000000 167.992645
v -37.287590 -0.000000 173.294830
v -38.097309 0.000000 165.374100
v -37.287590 -0.000000 173.294830
v -38.097309 0.000000 165.374100
v -16.520872 -0.000001 168.214920
v -20.586454 0.000001 161.369110
v -16.520872 -0.000001 168.214920
v -20.586454 0.000001 161.369110
v -0.928917 -0.000001 152.584595
v -8.123753 0.000000 149.174545
v -0.928917 -0.000001 152.584595
v -8.123753 0.000000 149.174545
v 2.860943 -0.000001 131.814087
v -5.037815 0.000001 130.812317
v 2.860943 -0.000001 131.814087
v -5.037815 0.000001 130.812317
v 4.623112 -0.000000 111.708206
v -3.326797 0.000000 111.269066
v 4.623112 -0.000000 111.708206
v -3.326797 0.000000 111.269066
v 5.333256 -0.000000 91.662102
v -2.627720 0.000000 91.532700
v 5.333256 -0.000000 91.662102
v -2.627720 0.000000 91.532700
v 5.483330 -0.000000 71.708458
v -2.478638 0.000000 71.677589
v 5.483330 -0.000000 71.708458
v -2.478638 0.000000 71.677589
v 5.403038 -0.000001 51.734707
v -2.558266 0.000001 51.842243
v 5.403038 -0.000001 51.734707
v -2.558266 0.000001 51.842243
v 5.002007 -0.000001 31.795559
v -2.957897 0.000001 31.979362
v 5.002007 -0.000001 31.795559
v -2.957897 0.000001 31.979362
v 4.570835 -0.000000 11.893456
v -3.388992 0.000000 12.080702
v 4.570835 -0.000000 11.893456
v -3.388992 0.000000 12.080702
v 3.936401 -0.000000 -8.051358
v -4.020443 0.000000 -7.764067
v 3.936401 -0.000000 -8.051358
v -4.020443 0.000000 -7.764067
v 3.397232 -0.000000 -27.854523
v -4.564175 0.000000 -27.755072
v 3.397232 -0.000000 -27.854523
v -4.564175 0.000000 -27.755072
v 3.548531 -0.000000 -47.561462
v -4.408150 0.000000 -47.853210
v 3.548531 -0.000000 -47.561462
v -4.408150 0.000000 -47.853210
v 4.559776 -0.000001 -67.426460
v -3.395828 0.000001 -67.746155
vt 1.000000 0.000000
vt 0.000000 1.000000
vt 0.000000 0.000000
vt 1.000000 1.000000
vt 1.000000 0.000000
vt 0.000000 1.000000
vt 0.000000 0.000000
vt 1.000000 1.000000
vt 1.000000 0.000000
vt 0.000000 1.000000
vt 0.000000 0.000000
vt 1.000000 1.000000
vt 1.000000 0.000000
vt 0.000000 1.000000
vt 0.000000 0.000000
vt 1.000000 1.000000
vt 1.000000 0.000000
vt 0.000000 1.000000
vt 0.000000 0.000000
vt 1.000000 1.000000
vt 1.000000 0.000000
vt 0.000000 1.000000
vt 0.000000 0.000000
vt 1.000000 1.000000
vt 1.000000 0.000000
vt 0.000000 1.000000
vt 0.000000 0.000000
vt 1.000000 1.000000
vt 1.000000 0.000000
vt 0.000000 1.000000
vt 0.000000 0.000000
vt 1.000000 1.000000
vt 1.000000 0.000000
vt 0.000000 1.000000
vt 0.000000 0.000000
vt 1.000000 1.000000
vt 1.000000 0.000000
vt 0.000000 1.000000
vt 0.000000 0.000000
vt 1.000000 1.000000
vt 1.000000 0.000000
vt 0.000000 1.000000
vt 0.000000 0.000000
vt 1.000000 1.000000
vt 1.000000 0.000000
vt 0.000000 1.000000
vt 0.000000 0.000000
vt 1.000000 1.000000
vt 1.000000 0.000000
vt 0.000000 1.000000
vt 0.000000 0.000000
vt 1.000000 1.000000
vt 1.000000 0.000000
vt 0.000000 1.000000
vt 0.000000 0.000000
vt 1.000000 1.000000
vt 1.000000 0.000000
vt 0.000000 1.000000
vt 0.000000 0.000000
vt 1.000000 1.000000
vt 1.000000 0.000000
vt 0.000000 1.000000
vt 0.000000 0.000000
vt 1.000000 1.000000
vt 1.000000 0.000000
vt 0.000000 1.000000
vt 0.000000 0.000000
vt 1.000000 1.000000
vt 1.000000 0.000000
vt 0.000000 1.000000
vt 0.000000 0.000000
vt 1.000000 1.000000
vt 1.000000 0.000000
vt 0.000000 1.000000
vt 0.000000 0.000000
vt 1.000000 1.000000
vt 1.000000 0.000000
vt 0.000000 1.000000
vt 0.000000 0.000000
vt 1.000000 1.000000
vt 1.000000 0.000000
vt 0.000000 1.000000
vt 0.000000 0.000000
vt 1.000000 1.000000
vt 1.000000 0.000000
vt 0.000000 1.000000
vt 0.000000 0.000000
vt 1.000000 1.000000
vt 1.000000 0.000000
vt 0.000000 1.000000
vt 0.000000 0.000000
vt 1.000000 1.000000
vt 1.000000 0.000000
vt 0.000000 1.000000
vt 0.000000 0.000000
vt 1.000000 1.000000
vt 1.000000 0.000000
vt 0.000000 1.000000
vt 0.000000 0.000000
vt 1.000000 1.000000
vt 1.000000 0.000000
vt 0.000000 1.000000
vt 0.000000 0.000000
vt 1.000000 1.000000
vt 1.000000 0.000000
vt 0.000000 1.000000
vt 0.000000 0.000000
vt 1.000000 1.000000
vt 1.000000 0.000000
vt 0.000000 1.000000
vt 0.000000 0.000000
vt 1.000000 1.000000
vt 1.000000 0.000000
vt 0.000000 1.000000
vt 0.000000 0.000000
vt 1.000000 1.000000
vt 1.000000 0.000000
vt 0.000000 1.000000
vt 0.000000 0.000000
vt 1.000000 1.000000
vt 1.000000 0.000000
vt 0.000000 1.000000
vt 0.000000 0.000000
vt 1.000000 1.000000
vt 1.000000 0.000000
vt 0.000000 1.000000
vt 0.000000 0.000000
vt 1.000000 1.000000
vt 1.000000 0.000000
vt 0.000000 1.000000
vt 0.000000 0.000000
vt 1.000000 1.000000
vt 1.000000 0.000000
vt 0.000000 1.000000
vt 0.000000 0.000000
vt 1.000000 1.000000
vt 1.000000 0.000000
vt 0.000000 1.000000
vt 0.000000 0.000000
vt 1.000000 1.000000
vt 1.000000 0.000000
vt 0.000000 1.000000
vt 0.000000 0.000000
vt 1.000000 1.000000
vt 1.000000 0.000000
vt 0.000000 1.000000
vt 0.000000 0.000000
vt 1.000000 1.000000
vt 1.000000 0.000000
vt 0.000000 1.000000
vt 0.000000 0.000000
vt 1.000000 1.000000
vt 1.000000 0.000000
vt 0.000000 1.000000
vt 0.000000 0.000000
vt 1.000000 1.000000
vt 1.000000 0.000000
vt 0.000000 1.000000
vt 0.000000 0.000000
vt 1.000000 1.000000
vt 1.000000 0.000000
vt 0.000000 1.000000
vt 0.000000 0.000000
vt 1.000000 1.000000
vt 1.000000 0.000000
vt 0.000000 1.000000
vt 0.000000 0.000000
vt 1.000000 1.000000
vt 1.000000 0.000000
vt 0.000000 1.000000
vt 0.000000 0.000000
vt 1.000000 1.000000
vt 1.000000 0.000000
vt 0.000000 1.000000
vt 0.000000 0.000000
vt 1.000000 1.000000
vt 1.000000 0.000000
vt 0.000000 1.000000
vt 0.000000 0.000000
vt 1.000000 1.000000
vt 1.000000 0.000000
vt 0.000000 1.000000
vt 0.000000 0.000000
vt 1.000000 1.000000
vt 1.000000 0.000000
vt 0.000000 1.000000
vt 0.000000 0.000000
vt 1.000000 1.000000
vn -0.0000 -1.0000 -0.0000
usemtl マテリアル
s off
f 2/1/1 3/2/1 1/3/1
f 2/1/1 4/4/1 3/2/1
f 6/5/1 7/6/1 5/7/1
f 6/5/1 8/8/1 7/6/1
f 10/9/1 11/10/1 9/11/1
f 10/9/1 12/12/1 11/10/1
f 14/13/1 15/14/1 13/15/1
f 14/13/1 16/16/1 15/14/1
f 18/17/1 19/18/1 17/19/1
f 18/17/1 20/20/1 19/18/1
f 22/21/1 23/22/1 21/23/1
f 22/21/1 24/24/1 23/22/1
f 26/25/1 27/26/1 25/27/1
f 26/25/1 28/28/1 27/26/1
f 30/29/1 31/30/1 29/31/1
f 30/29/1 32/32/1 31/30/1
f 34/33/1 35/34/1 33/35/1
f 34/33/1 36/36/1 35/34/1
f 38/37/1 39/38/1 37/39/1
f 38/37/1 40/40/1 39/38/1
f 42/41/1 43/42/1 41/43/1
f 42/41/1 44/44/1 43/42/1
f 46/45/1 47/46/1 45/47/1
f 46/45/1 48/48/1 47/46/1
f 50/49/1 51/50/1 49/51/1
f 50/49/1 52/52/1 51/50/1
f 54/53/1 55/54/1 53/55/1
f 54/53/1 56/56/1 55/54/1
f 58/57/1 59/58/1 57/59/1
f 58/57/1 60/60/1 59/58/1
f 62/61/1 63/62/1 61/63/1
f 62/61/1 64/64/1 63/62/1
f 66/65/1 67/66/1 65/67/1
f 66/65/1 68/68/1 67/66/1
f 70/69/1 71/70/1 69/71/1
f 70/69/1 72/72/1 71/70/1
f 74/73/1 75/74/1 73/75/1
f 74/73/1 76/76/1 75/74/1
f 78/77/1 79/78/1 77/79/1
f 78/77/1 80/80/1 79/78/1
f 82/81/1 83/82/1 81/83/1
f 82/81/1 84/84/1 83/82/1
f 86/85/1 87/86/1 85/87/1
f 86/85/1 88/88/1 87/86/1
f 90/89/1 91/90/1 89/91/1
f 90/89/1 92/92/1 91/90/1
f 94/93/1 95/94/1 93/95/1
f 94/93/1 96/96/1 95/94/1
f 98/97/1 99/98/1 97/99/1
f 98/97/1 100/100/1 99/98/1
f 102/101/1 103/102/1 101/103/1
f 102/101/1 104/104/1 103/102/1
f 106/105/1 107/106/1 105/107/1
f 106/105/1 108/108/1 107/106/1
f 110/109/1 111/110/1 109/111/1
f 110/109/1 112/112/1 111/110/1
f 114/113/1 115/114/1 113/115/1
f 114/113/1 116/116/1 115/114/1
f 118/117/1 119/118/1 117/119/1
f 118/117/1 120/120/1 119/118/1
f 122/121/1 123/122/1 121/123/1
f 122/121/1 124/124/1 123/122/1
f 126/125/1 127/126/1 125/127/1
f 126/125/1 128/128/1 127/126/1
f 130/129/1 131/130/1 129/131/1
f 130/129/1 132/132/1 131/130/1
f 134/133/1 135/134/1 133/135/1
f 134/133/1 136/136/1 135/134/1
f 138/137/1 139/138/1 137/139/1
f 138/137/1 140/140/1 139/138/1
f 142/141/1 143/142/1 141/143/1
f 142/141/1 144/144/1 143/142/1
f 146/145/1 147/146/1 145/147/1
f 146/145/1 148/148/1 147/146/1
f 150/149/1 151/150/1 149/151/1
f 150/149/1 152/152/1 151/150/1
f 154/153/1 155/154/1 153/155/1
f 154/153/1 156/156/1 155/154/1
f 158/157/1 159/158/1 157/159/1
f 158/157/1 160/160/1 159/158/1
f 162/161/1 163/162/1 161/163/1
f 162/161/1 164/164/1 163/162/1
f 166/165/1 167/166/1 165/167/1
f 166/165/1 168/168/1 167/166/1
f 170/169/1 171/170/1 169/171/1
f 170/169/1 172/172/1 171/170/1
f 174/173/1 175/174/1 173/175/1
f 174/173/1 176/176/1 175/174/1
f 178/177/1 179/178/1 177/179/1
f 178/177/1 180/180/1 179/178/1
f 182/181/1 183/182/1 181/183/1
f 182/181/1 184/184/1 183/182/1
f 186/185/1 187/186/1 185/187/1
f 186/185/1 188/188/1 187/186/1
